<?xml version="1.0" standalone="no"?>
<!DOCTYPE svg PUBLIC "-//W3C//DTD SVG 20010904//EN"
 "http://www.w3.org/TR/2001/REC-SVG-20010904/DTD/svg10.dtd">
<svg version="1.0" xmlns="http://www.w3.org/2000/svg"
 width="500.000000pt" height="500.000000pt" viewBox="0 0 500.000000 500.000000"
 preserveAspectRatio="xMidYMid meet">

<g transform="translate(0.000000,500.000000) scale(0.100000,-0.100000)"
fill="#000000" stroke="none">
<path d="M2325 3993 c-27 -2 -138 -12 -245 -23 -460 -48 -497 -56 -546 -130
-24 -36 -28 -55 -33 -143 -4 -56 -12 -112 -19 -125 -18 -32 -125 -99 -186
-117 -28 -9 -98 -23 -154 -32 -81 -12 -110 -21 -133 -40 -63 -53 -71 -98 -52
-296 105 -1146 357 -1665 1060 -2184 149 -110 534 -343 566 -343 7 0 86 43
177 96 889 518 1233 993 1389 1914 38 224 72 518 74 640 1 79 -2 101 -18 129
-33 56 -62 71 -186 91 -133 23 -184 40 -257 88 -76 50 -85 67 -92 187 -13 192
-41 210 -395 249 -132 15 -296 31 -365 36 -117 9 -472 11 -585 3z m696 -108
c398 -38 520 -59 538 -93 5 -10 12 -58 16 -108 9 -124 26 -166 88 -215 92 -73
193 -112 364 -139 102 -16 108 -25 100 -147 -19 -277 -76 -662 -132 -890 -153
-620 -443 -1015 -1025 -1395 -156 -102 -370 -228 -388 -228 -15 0 -233 128
-372 218 -201 130 -424 314 -545 448 -348 386 -510 821 -594 1594 -36 328 -36
345 -13 368 12 12 40 23 69 27 168 22 273 58 369 127 72 52 95 99 101 215 7
113 13 130 57 148 48 20 526 76 761 89 121 6 445 -4 606 -19z"/>
<path d="M2993 3529 c-7 -7 -9 -51 -6 -133 l6 -121 -164 3 c-90 2 -166 6 -168
8 -2 2 -7 52 -10 111 -7 116 -12 133 -40 133 -38 0 -44 -23 -36 -140 l7 -110
-153 -2 c-85 -1 -175 -2 -201 -3 l-48 -1 0 112 c0 89 -3 116 -16 128 -40 41
-55 7 -57 -126 l-2 -113 -154 -3 c-85 -1 -160 -7 -166 -12 -8 -6 -14 -65 -18
-161 -4 -84 -9 -154 -12 -157 -3 -3 -47 -5 -97 -4 -96 1 -118 -6 -118 -40 0
-29 27 -36 144 -37 l78 -1 -6 -147 c-3 -82 -6 -169 -6 -194 l0 -46 -97 -6
c-106 -7 -138 -22 -117 -55 10 -15 26 -17 113 -14 l101 2 0 -169 0 -169 -75
-7 c-42 -4 -89 -5 -105 -2 -19 4 -36 1 -51 -12 -19 -15 -20 -21 -10 -40 12
-21 18 -22 124 -20 l112 2 3 -141 c2 -95 6 -143 15 -150 10 -8 197 -21 314
-22 l32 0 0 -121 c0 -122 4 -138 38 -139 24 0 33 40 33 148 l0 109 58 -3 c31
-2 118 -6 193 -10 l137 -6 8 -110 c7 -89 13 -113 27 -122 12 -8 22 -8 35 0 15
10 17 25 13 122 l-3 111 163 -6 c102 -4 167 -10 171 -17 4 -6 8 -57 8 -113 0
-119 4 -133 36 -133 36 0 43 32 38 154 l-4 106 117 0 c139 1 202 11 221 37 9
12 13 44 12 98 -1 44 -2 107 -1 141 l1 61 116 6 c127 6 152 16 139 57 -7 22
-9 22 -131 15 -102 -6 -124 -5 -125 6 -2 20 3 324 4 326 1 0 52 4 112 8 119 8
142 17 130 55 -7 22 -10 23 -126 18 l-119 -5 0 198 0 199 95 0 c52 0 98 0 103
1 23 3 42 23 42 44 0 29 -25 38 -96 34 -27 -2 -68 -2 -92 -1 l-43 2 2 145 c2
104 -1 149 -10 158 -13 13 -133 25 -262 26 l-77 1 -7 113 c-4 61 -11 122 -16
135 -9 23 -38 29 -56 11z m181 -336 l179 -6 -7 -96 c-3 -53 -9 -382 -12 -731
-4 -349 -9 -637 -11 -640 -3 -3 -125 -5 -271 -5 -283 1 -434 6 -1077 33 l-150
7 0 370 c1 401 14 1057 22 1065 15 16 920 18 1327 3z"/>
<path d="M1931 3132 c-17 -15 -20 -33 -23 -131 -3 -100 -1 -115 15 -125 12 -8
22 -8 35 0 14 9 18 28 20 103 l3 91 94 0 c110 0 125 4 125 36 0 31 -2 31 -137
37 -96 5 -115 3 -132 -11z"/>
<path d="M3085 3101 c-34 -7 -43 -31 -20 -55 11 -11 34 -16 71 -16 l55 0 -2
-94 c-1 -52 2 -99 5 -105 11 -17 53 -13 60 5 3 9 6 69 6 134 0 104 -2 120 -17
128 -21 11 -116 13 -158 3z"/>
<path d="M2376 3010 c-16 -5 -41 -20 -55 -34 -15 -14 -49 -33 -75 -42 -49 -17
-126 -82 -126 -107 0 -7 -21 -30 -46 -51 -57 -48 -78 -94 -71 -158 4 -32 1
-57 -10 -78 -11 -23 -14 -46 -9 -83 7 -54 7 -58 5 -148 -1 -41 5 -68 23 -105
14 -27 28 -67 31 -88 7 -41 43 -88 88 -111 14 -8 44 -32 66 -54 22 -23 49 -41
59 -42 37 -1 54 -7 80 -28 36 -28 116 -29 161 -1 67 40 64 19 68 556 5 549 8
526 -70 564 -44 21 -72 24 -119 10z m107 -92 c9 -17 12 -57 9 -150 l-4 -126
-86 -7 c-48 -4 -93 -12 -100 -18 -7 -5 -26 -36 -44 -68 -27 -51 -35 -59 -60
-59 -43 0 -68 -17 -68 -45 0 -30 31 -40 95 -31 43 7 47 10 85 77 39 66 42 69
79 69 21 0 53 3 70 6 l31 7 0 -196 0 -195 -87 -7 c-79 -6 -89 -10 -115 -37
-30 -32 -35 -57 -16 -76 18 -18 35 -15 60 12 19 20 35 25 85 28 34 1 64 0 68
-3 8 -9 9 -101 1 -127 -14 -44 -95 -56 -120 -17 -13 20 -25 25 -57 25 -33 0
-47 7 -78 38 -21 20 -54 46 -72 57 -33 20 -38 30 -56 111 l-9 40 95 2 96 2 31
35 c20 23 40 35 56 35 32 0 52 23 43 50 -5 16 -15 20 -54 20 -41 0 -52 -5 -81
-35 l-34 -35 -94 0 -93 0 6 44 c4 27 2 65 -6 94 -11 46 -11 52 11 87 20 32 22
42 13 80 -11 49 3 97 34 113 10 5 47 12 82 16 63 6 66 5 97 -25 28 -27 36 -30
85 -27 53 3 54 4 54 33 0 27 -3 30 -37 33 -26 2 -47 13 -67 33 -25 25 -37 29
-82 29 l-52 0 22 24 c12 12 41 29 64 36 23 7 57 25 75 41 43 38 105 41 125 7z"/>
<path d="M2675 3000 c-71 -35 -68 -10 -67 -558 1 -545 -2 -522 65 -562 44 -27
125 -27 159 0 14 10 44 24 68 29 25 6 57 23 79 43 20 19 54 46 76 61 47 31 71
67 79 119 3 20 16 56 28 80 21 40 26 81 20 158 -2 14 0 51 4 82 4 40 2 68 -7
90 -8 18 -12 54 -11 80 5 64 -26 127 -78 162 -22 14 -40 33 -40 40 0 36 -100
116 -144 116 -9 0 -30 13 -49 30 -62 54 -116 63 -182 30z m137 -89 c18 -15 51
-34 73 -41 46 -15 85 -38 85 -51 0 -5 -23 -9 -50 -9 -41 0 -56 -5 -76 -25 -14
-14 -39 -27 -56 -30 -41 -8 -48 -13 -48 -34 0 -28 21 -41 65 -41 33 0 47 6 70
30 28 29 31 30 94 24 80 -8 96 -16 117 -56 13 -26 14 -37 4 -72 -10 -38 -9
-46 11 -80 20 -35 21 -42 10 -86 -8 -29 -10 -67 -5 -95 l6 -46 -93 1 c-92 2
-95 3 -129 35 -46 44 -123 52 -135 15 -9 -27 11 -50 42 -50 15 0 37 -14 57
-35 33 -34 35 -35 117 -36 46 -1 90 0 98 1 10 1 11 -4 6 -17 -5 -10 -10 -36
-13 -58 -5 -45 -23 -70 -67 -92 -16 -9 -44 -31 -61 -49 -26 -28 -39 -34 -72
-34 -31 0 -43 -5 -56 -25 -21 -33 -65 -33 -103 -1 -25 21 -27 29 -25 81 1 32
5 61 7 65 3 5 33 6 68 3 48 -4 67 -11 85 -29 28 -29 48 -30 62 -4 8 15 7 27
-5 50 -21 40 -37 47 -130 55 l-80 7 -4 196 -3 195 38 -6 c22 -4 56 -7 77 -7
20 0 37 -4 37 -9 0 -5 14 -34 32 -65 34 -58 62 -76 122 -76 36 0 56 15 56 42
0 21 -29 38 -67 38 -24 0 -33 8 -61 59 -17 32 -38 63 -45 68 -6 6 -48 13 -92
17 -44 4 -83 10 -87 14 -4 4 -8 65 -9 136 -2 115 0 130 16 143 32 22 81 16
117 -16z"/>
<path d="M1910 2755 c-20 -25 -8 -50 25 -50 21 0 31 5 33 18 4 21 -14 47 -33
47 -7 0 -18 -7 -25 -15z"/>
</g>
</svg>
