<svg version="1.1" id="Layer_1" xmlns="http://www.w3.org/2000/svg" xmlns:xlink="http://www.w3.org/1999/xlink" x="0px" y="0px"
	 width="100%" viewBox="0 0 1024 1024" enable-background="new 0 0 1024 1024" xml:space="preserve">
<path fill="#010101" opacity="1.000000" stroke="none" 
	d="
M569.000000,1025.000000 
	C379.333344,1025.000000 190.166672,1025.000000 1.000000,1025.000000 
	C1.000000,683.666687 1.000000,342.333344 1.000000,1.000000 
	C342.333344,1.000000 683.666687,1.000000 1025.000000,1.000000 
	C1025.000000,342.333344 1025.000000,683.666687 1025.000000,1025.000000 
	C873.166687,1025.000000 721.333313,1025.000000 569.000000,1025.000000 
M866.330994,698.160400 
	C866.247620,696.773499 866.164246,695.386597 866.347168,693.199158 
	C866.295166,691.799683 866.243164,690.400208 866.722961,688.416748 
	C866.575500,685.272461 866.427979,682.128174 866.318665,678.139160 
	C866.226562,677.587158 866.134399,677.035156 866.036255,676.566650 
	C866.036255,676.566650 866.027954,676.650024 866.273560,675.788574 
	C866.263306,675.191895 866.252991,674.595154 866.671692,673.631165 
	C866.067749,673.145386 865.463867,672.659607 863.971741,671.885742 
	C856.790588,671.837158 849.607727,671.677917 842.429260,671.794617 
	C839.562683,671.841248 836.706116,672.496765 833.959045,672.902161 
	C833.959045,672.902161 833.881470,672.814270 833.203186,672.722839 
	C833.175842,673.148438 833.148499,673.574036 832.895020,674.914368 
	C832.998169,687.610107 833.101318,700.305786 833.013672,713.921204 
	C832.971985,721.178894 832.930237,728.436523 831.967468,735.761963 
	C810.975586,735.855591 789.983704,735.949158 768.172852,735.721558 
	C766.902466,735.664795 765.632141,735.608032 764.057495,735.537659 
	C764.057495,714.276672 764.057495,693.230713 764.057495,671.981689 
	C757.489258,671.981689 751.238892,671.981689 744.363403,671.830566 
	C741.919495,672.281982 739.475647,672.733337 736.247925,673.198608 
	C735.204407,673.230713 734.160950,673.262756 732.583801,672.964233 
	C732.377319,672.998169 732.170776,673.032104 731.050171,673.163574 
	C730.931396,673.641846 730.708618,674.120117 730.708618,674.598389 
	C730.710632,726.010193 730.721863,777.421997 730.797180,828.833740 
	C730.798767,829.923279 731.550232,831.011841 731.977356,832.023254 
	C731.977356,832.023254 731.900635,832.051270 732.161804,832.926575 
	C741.877869,832.943115 751.594421,832.999268 761.309082,832.890259 
	C761.982361,832.882629 762.641846,831.646057 763.713074,830.128479 
	C763.713074,808.868530 763.713074,787.608582 763.713074,766.444214 
	C764.931152,766.194092 765.400940,766.014709 765.871399,766.012878 
	C787.520630,765.929199 809.169922,765.848145 830.819214,765.843079 
	C831.611206,765.842896 832.403381,766.606506 833.011658,767.933594 
	C833.080078,788.570740 833.148499,809.207886 833.028320,830.470825 
	C833.293091,830.986328 833.557861,831.501892 834.255249,832.801636 
	C844.891235,832.801636 855.527161,832.801636 866.224365,832.801636 
	C866.224365,829.959412 866.224365,827.488770 866.684814,824.335266 
	C866.548340,816.549622 866.411865,808.763916 866.351562,800.093018 
	C866.322021,795.164917 866.292480,790.236877 866.719788,784.508057 
	C866.570679,781.665466 866.421570,778.822876 866.317993,775.102417 
	C866.277405,773.631409 866.236755,772.160339 866.654297,770.109070 
	C866.542542,767.734497 866.430786,765.359985 866.366577,762.156616 
	C866.345520,760.773804 866.324402,759.391052 866.727173,757.724915 
	C866.570129,757.146667 866.413086,756.568420 866.338623,755.196289 
	C866.319702,754.132629 866.300781,753.068909 866.740540,751.404602 
	C866.578003,748.932861 866.415466,746.461060 866.319397,743.329773 
	C866.303650,742.888428 866.287842,742.447144 866.721802,741.564636 
	C866.573425,740.371765 866.425110,739.178894 866.291443,737.267212 
	C866.209839,735.178162 866.128296,733.089050 866.302795,730.333862 
	C866.179382,729.889526 866.055969,729.445251 866.269653,728.167358 
	C866.276978,725.777649 866.284302,723.387878 866.748047,720.564270 
	C866.587891,719.378967 866.427795,718.193665 866.336548,716.250671 
	C866.334900,714.267029 866.333313,712.283325 866.743225,709.460205 
	C866.606079,708.868774 866.468933,708.277344 866.387939,706.957458 
	C866.355591,705.224243 866.323242,703.490967 866.681030,701.388977 
	C866.543823,700.592529 866.406616,699.796082 866.330994,698.160400 
M546.095398,831.480408 
	C546.030029,831.301270 545.964722,831.122192 545.996094,830.016785 
	C545.980774,821.207764 545.946655,812.398804 545.953186,803.589783 
	C545.983643,762.728943 546.025391,721.868103 546.359192,680.312927 
	C546.428955,678.004822 546.775574,675.662170 546.493042,673.398010 
	C546.192383,670.989075 545.076233,671.007446 543.275635,673.209961 
	C542.783997,673.181824 542.292358,673.153687 541.939148,672.572510 
	C541.828308,672.286438 541.717468,672.000305 541.606567,671.714233 
	C541.469849,672.185913 541.333069,672.657532 540.354126,673.282288 
	C539.502991,673.230042 538.651855,673.177795 537.937683,672.565918 
	C537.827637,672.276428 537.717651,671.986938 537.607666,671.697449 
	C537.470520,672.174683 537.333435,672.651978 536.498169,673.263245 
	C536.265747,673.217346 536.033264,673.171448 535.940369,672.577148 
	C535.828857,672.293518 535.717346,672.009949 535.605835,671.726318 
	C535.469360,672.193970 535.332886,672.661560 534.582458,673.262085 
	C534.373108,673.258850 534.163757,673.255554 533.971130,672.594727 
	C532.960999,672.427551 531.950806,672.260376 530.036865,671.884094 
	C524.431641,671.884094 518.826355,671.884094 513.155090,671.884094 
	C513.068665,672.527954 512.950623,672.995483 512.950928,673.462830 
	C512.976379,708.036804 512.998352,742.610718 513.050537,777.184692 
	C513.078125,795.456299 513.159790,813.727722 513.367126,832.857361 
	C519.627258,832.905396 525.890198,833.087463 532.146606,832.956848 
	C536.751099,832.860718 541.347168,832.355652 546.095398,831.480408 
M219.322067,672.023926 
	C217.865952,672.239685 216.409836,672.455444 214.321838,672.926208 
	C213.879761,672.958801 213.437683,672.991394 212.870132,672.340454 
	C212.211029,672.291565 211.551941,672.242615 209.972794,672.051819 
	C198.554855,671.927612 187.135269,671.694519 175.721848,671.868103 
	C174.714783,671.883362 172.957718,674.524353 172.898682,675.999817 
	C172.634689,682.596863 172.907013,689.213623 172.901001,695.823120 
	C172.874908,724.431458 172.815201,753.039795 172.777252,781.648132 
	C172.768921,787.917603 172.812729,794.187012 172.809372,800.456482 
	C172.803711,811.000854 172.779480,821.545166 173.256683,832.836853 
	C199.675644,832.905457 226.094589,832.983521 252.513580,832.997253 
	C253.306992,832.997681 254.100769,832.326294 255.815292,831.916321 
	C264.642975,832.339294 272.544678,829.339050 280.667297,826.198975 
	C301.024963,818.329041 310.115723,797.017334 306.020355,778.139587 
	C302.777863,763.192993 293.027222,753.366211 277.383240,749.291870 
	C278.922058,748.215759 280.186951,747.227173 281.548309,746.396729 
	C288.233765,742.318481 294.241425,737.258667 296.670044,729.748779 
	C298.458191,724.219543 298.585327,718.098145 299.048920,712.208801 
	C299.721588,703.663147 296.069855,696.207336 290.766022,690.200439 
	C279.835785,677.821350 265.683807,672.169434 248.545212,672.849609 
	C248.007599,672.613708 247.469986,672.377808 246.009689,672.005920 
	C237.370346,672.059814 228.730988,672.113708 219.322067,672.023926 
M386.665436,671.580811 
	C386.163025,672.420105 385.660614,673.259460 384.790619,674.777161 
	C376.168396,698.330383 367.477234,721.858582 358.945740,745.444580 
	C352.054047,764.497131 345.334534,783.612122 338.579041,802.713745 
	C335.275513,812.054749 332.064026,821.428345 328.901428,830.862305 
	C328.901428,830.862305 328.781952,830.784485 327.990112,831.184387 
	C328.611542,831.794678 329.227783,832.930847 329.855194,832.937073 
	C340.794708,833.045410 351.735565,833.015198 362.532257,833.015198 
	C366.061096,823.339600 369.522980,813.908875 372.938263,804.461304 
	C375.101257,798.477600 377.595886,797.272095 383.688354,797.712585 
	C393.268860,798.405273 402.889343,798.660522 412.497528,798.815430 
	C419.162048,798.922974 425.845917,798.270081 432.496796,798.545288 
	C434.813507,798.641174 437.354462,799.095215 438.483215,802.843689 
	C441.377472,812.455383 445.292999,821.759521 448.789642,831.618530 
	C448.789642,831.618530 448.996582,831.997803 449.283539,832.837585 
	C461.188385,832.837585 473.093201,832.837585 485.561035,832.837585 
	C480.554871,819.890747 475.565918,807.528442 470.986847,795.016113 
	C464.565582,777.470032 458.518768,759.787354 452.180817,742.210327 
	C446.937225,727.668274 441.562897,713.172546 436.131409,698.699463 
	C433.147430,690.748230 429.925598,682.886169 427.295624,674.809082 
	C427.061615,674.198303 426.827606,673.587585 425.970428,672.262573 
	C412.980560,672.191650 399.990692,672.120789 386.665436,671.580811 
M651.139587,806.355408 
	C643.391907,805.949097 635.644165,805.542725 627.124634,804.846680 
	C616.910706,802.298950 608.986206,792.701904 608.262634,782.014465 
	C608.117615,779.872437 607.692139,779.539124 605.049988,779.901978 
	C594.875366,781.299255 584.592773,781.910461 572.956848,782.937744 
	C574.531555,789.191101 576.049316,794.929688 577.415039,800.704346 
	C579.885620,811.151001 587.408997,817.861816 595.264526,824.006042 
	C607.122803,833.281128 621.537903,835.526367 635.936829,836.010193 
	C644.847046,836.309631 653.916321,834.610596 662.775818,833.032104 
	C675.570984,830.752319 686.596130,824.310486 694.328796,814.111450 
	C703.553284,801.944763 705.479004,787.771851 701.461548,772.824768 
	C697.412781,757.760681 686.781799,748.946472 673.038818,744.064880 
	C660.900085,739.753113 648.101318,737.331177 635.695129,733.726929 
	C629.535339,731.937500 623.173706,730.110352 617.685120,726.944885 
	C611.932495,723.627075 610.996460,716.713074 612.273499,711.035767 
	C613.527527,705.461182 618.172058,701.170410 624.008545,699.360413 
	C631.651123,696.990234 639.358704,696.233826 647.397095,698.158997 
	C657.283386,700.526855 666.763855,708.389221 667.225586,720.286804 
	C677.768982,719.443481 688.281921,718.602600 699.193115,717.729858 
	C698.849854,714.067871 699.294189,710.034973 697.997253,706.674011 
	C694.590820,697.846375 691.184448,689.345032 682.853943,682.989807 
	C671.655396,674.446655 659.112854,671.073059 645.858643,669.850159 
	C632.816528,668.646851 619.775269,670.019165 607.474792,675.174194 
	C595.569458,680.163696 586.422607,687.858704 581.811584,700.496399 
	C579.655273,706.406372 579.202576,712.219421 579.006958,718.395935 
	C578.594238,731.425720 582.922546,741.497070 593.227051,749.933655 
	C603.284729,758.168091 615.351929,760.648926 627.048035,764.035034 
	C639.148438,767.538147 651.869690,768.901001 663.179443,775.041870 
	C666.461975,776.824158 670.977783,786.416626 670.076172,789.888184 
	C667.641235,799.264221 661.440613,804.439209 651.139587,806.355408 
M841.776062,295.282135 
	C844.700562,293.217651 847.953979,291.491760 850.490295,289.027740 
	C859.533875,280.241669 868.265442,271.134308 877.313599,262.353027 
	C878.427856,261.271637 880.999695,260.652466 882.450378,261.141449 
	C888.071655,263.036133 893.438293,263.751770 899.218262,261.531830 
	C907.993774,258.161346 915.604248,249.001740 914.248657,236.256653 
	C912.747375,222.141724 895.773315,211.966110 882.750427,217.405899 
	C871.566650,222.077484 864.775879,233.511703 868.838562,244.938553 
	C869.995728,248.193176 868.558594,251.219345 865.275940,252.970764 
	C864.469849,253.400879 863.486816,253.646454 862.870117,254.262268 
	C855.445923,261.675690 848.136902,269.205994 840.627502,276.531128 
	C839.434753,277.694611 837.408997,278.588531 835.757812,278.605865 
	C821.760620,278.752899 807.756104,278.464233 793.765442,278.795868 
	C790.287048,278.878326 786.354858,280.009308 783.501587,281.942657 
	C778.041260,285.642426 773.308533,290.397522 768.063049,294.441162 
	C765.767639,296.210663 762.981750,298.458649 760.371033,298.521729 
	C744.563660,298.903656 728.741577,298.817902 712.926697,298.657684 
	C708.269653,298.610504 706.686523,294.742584 706.275940,291.016754 
	C705.863037,287.270416 705.618713,282.913452 710.476257,281.269379 
	C727.384460,275.546722 744.422607,270.187714 761.196716,264.099182 
	C768.580383,261.419128 776.380493,259.865295 782.437866,253.498383 
	C797.924194,237.220520 814.129700,221.625610 830.127441,205.838531 
	C831.051331,204.926834 832.688904,204.294113 833.992493,204.297150 
	C837.485046,204.305283 840.975830,204.934174 844.468872,204.948395 
	C853.020752,204.983215 861.847290,196.765884 864.116943,188.720978 
	C866.006165,182.024475 865.186523,175.974991 861.643433,170.266663 
	C857.375488,163.390274 851.630188,158.048569 843.127197,157.793945 
	C825.453491,157.264694 813.768738,171.831665 819.099426,189.364273 
	C820.041382,192.462250 819.328613,193.762939 817.543335,195.546051 
	C801.749817,211.320343 785.981384,227.119720 770.176270,242.882294 
	C769.170227,243.885620 768.047974,245.002716 766.763733,245.459824 
	C757.728333,248.675842 748.644409,251.756454 739.560486,254.834732 
	C724.716797,259.864868 709.949097,265.143921 694.980530,269.771912 
	C684.806519,272.917511 674.941711,276.293671 663.433105,274.114594 
	C653.360107,272.207397 643.992371,269.161316 634.843628,265.088104 
	C615.603210,256.521851 596.398499,247.857452 577.400330,238.770920 
	C564.317871,232.513779 550.742249,231.679565 536.874756,233.905182 
	C525.652527,235.706284 517.165161,242.934753 509.032654,250.224640 
	C505.144928,253.709488 502.295319,258.328125 498.575775,262.031799 
	C494.998352,265.593964 490.624207,268.363312 487.098053,271.968079 
	C480.161804,279.058929 473.719849,286.632660 466.798645,293.739075 
	C458.365814,302.397644 449.591125,310.722351 441.092072,319.317810 
	C438.499847,321.939453 435.360809,324.620178 434.150970,327.894226 
	C430.794403,336.977386 433.924469,346.091583 444.333130,350.128967 
	C452.969116,353.478790 461.599457,353.210083 470.700958,352.144257 
	C486.064636,350.345093 497.036316,341.417206 507.927490,331.871582 
	C514.687134,325.947083 521.289490,319.794556 528.448364,314.387695 
	C535.517700,309.048492 547.182434,310.643921 553.423767,316.844635 
	C558.569092,321.956512 563.812683,326.974640 569.134033,331.903290 
	C581.376587,343.242249 593.695557,354.498627 605.975830,365.796783 
	C607.322937,367.036194 608.585815,368.367981 609.946533,369.591553 
	C616.995850,375.930359 624.115662,382.191833 631.106934,388.593903 
	C635.332336,392.463226 639.356995,396.551147 643.491882,400.519928 
	C653.194153,409.832428 662.907898,419.132935 672.618530,428.436676 
	C673.818726,429.586609 675.008972,430.747864 676.236511,431.868134 
	C683.194336,438.218292 690.079895,444.653534 697.228577,450.781494 
	C698.141846,451.564331 701.058289,451.399445 702.007141,450.533936 
	C710.373840,442.901733 718.550842,435.058624 726.679688,427.170441 
	C729.304260,424.623535 731.619263,421.757660 735.135559,417.864380 
	C739.826599,423.100861 744.244324,428.220306 748.870544,433.143768 
	C753.541870,438.115082 758.387268,442.924896 763.215820,447.745972 
	C769.355408,453.876282 775.590149,459.911469 781.720337,466.051117 
	C790.878296,475.223267 800.032043,484.401306 809.039795,493.719727 
	C810.122559,494.839905 811.009094,496.986542 810.736755,498.419952 
	C809.977173,502.417450 807.843994,506.190979 810.062012,510.401978 
	C812.315186,514.679871 813.316711,520.412048 816.750977,523.095032 
	C822.567139,527.638733 829.016418,531.030273 837.850525,529.266663 
	C853.517517,526.139221 862.378845,507.528625 853.825195,493.203522 
	C848.419983,484.151367 835.755798,480.270691 825.512878,483.892029 
	C822.388000,484.996826 820.458984,484.165222 818.442932,482.140045 
	C794.086548,457.672852 769.711548,433.224091 745.370483,408.741699 
	C739.744324,403.082764 739.802551,403.041565 745.917664,397.615509 
	C746.372559,397.211914 746.534180,396.495422 746.943359,396.020172 
	C749.983215,392.489685 752.671814,388.523071 756.218445,385.601044 
	C759.664673,382.761749 772.131042,382.359619 776.728027,386.423370 
	C782.027039,391.107544 787.462158,395.704041 792.244324,400.886597 
	C796.388611,405.377777 801.047913,407.399109 807.036743,407.340881 
	C820.033020,407.214478 833.031555,407.279083 846.028687,407.351776 
	C847.200928,407.358337 848.692810,407.642944 849.489929,408.385132 
	C857.303894,415.660339 865.046326,423.014801 872.668152,430.490448 
	C873.484314,431.290955 873.696594,433.006470 873.685730,434.293335 
	C873.656494,437.773163 873.261963,441.248474 873.179321,444.729553 
	C872.838318,459.088135 885.703125,466.797577 896.954224,466.913971 
	C904.970886,466.996918 917.112549,459.683502 919.357300,448.846069 
	C921.247009,439.722229 918.947144,432.641541 913.610901,426.329193 
	C907.189880,418.733582 897.802368,418.786407 889.223083,420.610840 
	C885.251892,421.455353 883.630066,420.369263 881.526855,418.220703 
	C874.656433,411.202087 868.049011,403.906433 860.884338,397.204895 
	C857.896240,394.409973 853.847107,391.216797 850.128662,391.016113 
	C837.857483,390.353790 825.490173,390.529083 813.213074,391.268799 
	C805.688538,391.722137 800.874756,387.721893 795.963867,383.446350 
	C791.436584,379.504913 787.577698,374.711487 782.746948,371.234589 
	C779.820435,369.128326 775.643250,368.017670 771.962891,367.844788 
	C762.195618,367.386078 752.392944,367.701263 742.604553,367.664520 
	C737.711243,367.646149 732.938782,362.758240 732.921631,357.845306 
	C732.905762,353.323792 736.734619,350.290588 742.396790,350.291473 
	C793.560913,350.299622 844.725098,350.294647 895.889160,350.342682 
	C897.092651,350.343811 898.626709,350.554504 899.435364,351.292969 
	C901.680603,353.343414 903.491821,355.864716 905.708313,357.951752 
	C918.778748,370.259247 936.791809,363.726715 941.739380,348.808716 
	C945.375732,337.844238 944.378113,328.955048 932.976318,320.466248 
	C927.848694,316.648651 921.559692,315.617279 914.757019,317.582245 
	C905.966125,320.121490 900.279907,325.347198 897.666504,333.840515 
	C864.515259,333.840515 831.755005,333.856293 798.994690,333.835114 
	C776.025208,333.820282 753.055664,333.784515 730.086365,333.693909 
	C723.390808,333.667511 719.422729,328.692688 719.298462,323.091705 
	C719.181519,317.823456 722.682556,314.839539 728.157532,314.898285 
	C738.310974,315.007202 748.513245,314.429596 758.604553,315.251190 
	C766.845825,315.922150 772.166687,311.833069 777.796631,307.080719 
	C782.573120,303.048859 787.873413,299.637695 793.874390,295.797699 
	C797.025635,295.781006 800.185059,295.614716 803.326111,295.785583 
	C807.232361,295.998047 811.124084,296.785278 815.021057,296.778137 
	C819.078308,296.770691 823.128357,296.017853 827.192444,295.764069 
	C831.786133,295.477234 836.391846,295.383118 841.776062,295.282135 
M151.423737,221.895065 
	C149.646042,220.739761 147.891785,219.546341 146.086807,218.435364 
	C135.032990,211.631729 120.806229,218.512482 115.290253,228.065186 
	C110.130371,237.001221 111.870163,245.674713 117.135612,253.903656 
	C121.331764,260.461487 132.217804,263.835358 139.537659,262.154968 
	C143.902771,261.152863 148.384064,259.985718 152.633575,265.070679 
	C160.084976,273.986969 168.734085,281.937958 177.227951,289.924896 
	C179.667831,292.219116 183.253616,294.529999 186.388977,294.636993 
	C200.536621,295.120056 214.711258,294.790131 228.875946,294.831879 
	C230.272644,294.835999 231.932220,294.989563 233.019455,295.732635 
	C238.775253,299.666595 244.498917,303.666351 250.015732,307.925659 
	C255.091766,311.844635 259.712250,315.840454 267.016449,315.236633 
	C275.267975,314.554474 283.619659,314.988464 291.925720,315.095734 
	C297.199188,315.163818 300.984344,319.539368 300.881714,325.107391 
	C300.777283,330.773438 298.254028,333.754730 293.386749,333.759521 
	C240.480545,333.811523 187.574280,333.813843 134.668320,333.946045 
	C131.466049,333.954041 130.018112,332.879211 128.658966,329.985260 
	C122.434364,316.731964 107.185463,313.645935 96.449692,319.230957 
	C85.696465,324.825012 82.923515,334.789368 84.877144,346.132782 
	C86.166077,353.616791 90.560860,358.879425 97.595848,362.158966 
	C106.546791,366.331665 116.762276,364.769714 122.989960,357.169617 
	C127.215652,352.012695 131.868301,350.080933 138.738464,350.119476 
	C184.897980,350.378357 231.060516,350.097656 277.222076,349.998749 
	C278.037354,349.997009 279.175446,349.750519 279.615814,350.179657 
	C282.462738,352.954041 285.112732,355.850525 283.645447,360.416443 
	C282.290710,364.632141 280.101013,367.721985 275.162018,367.701569 
	C267.664673,367.670532 260.154449,367.392212 252.676758,367.763397 
	C250.038254,367.894348 247.011337,369.056580 244.976044,370.735229 
	C239.932480,374.895020 235.541916,379.842834 230.530334,384.046448 
	C227.317413,386.741364 223.568481,390.426575 219.884430,390.639954 
	C206.127136,391.436890 192.292557,391.197693 178.497772,390.878937 
	C173.985123,390.774628 170.832214,392.474945 167.911362,395.379730 
	C159.672058,403.573669 151.492706,411.829163 143.143845,419.909637 
	C142.285950,420.739990 140.386719,420.965851 139.070633,420.776703 
	C128.614883,419.274170 118.823555,418.774658 111.428375,428.847473 
	C106.964706,434.927338 105.419678,441.835510 107.184326,448.102081 
	C110.517395,459.938263 120.916687,469.427887 135.461990,465.997284 
	C143.033890,464.211426 149.820831,459.909607 152.144348,451.388367 
	C152.501846,450.077271 151.935486,448.171082 152.684219,447.371490 
	C155.381195,444.491486 154.744690,441.678925 153.234482,438.696594 
	C151.406464,435.086639 152.035614,432.099457 155.057480,429.317383 
	C162.691956,422.288666 170.158279,415.077057 177.809906,408.067535 
	C178.570770,407.370483 180.141373,407.369110 181.337479,407.364227 
	C195.003189,407.308197 208.671890,407.454956 222.332855,407.189972 
	C225.211624,407.134094 228.660034,406.376343 230.815048,404.652893 
	C237.571198,399.249756 243.899750,393.301117 250.265549,387.424683 
	C254.077438,383.905792 263.752777,381.626953 267.949585,384.778839 
	C274.002045,389.324341 279.364319,394.841949 284.640808,400.311646 
	C285.454437,401.155090 284.829803,404.383484 283.836639,405.766754 
	C281.704071,408.736877 278.998169,411.327942 276.342072,413.881866 
	C272.543457,417.534393 268.520905,420.953461 264.702942,424.586700 
	C261.177704,427.941437 257.799347,431.450348 254.350418,434.885437 
	C247.229248,441.977997 240.016403,448.981415 233.018112,456.193146 
	C229.575943,459.740265 226.755432,463.899963 223.246063,467.370331 
	C218.509155,472.054504 212.438004,475.682495 208.712097,481.004700 
	C205.649536,485.379303 202.674606,484.656647 199.314270,483.661255 
	C189.817657,480.848267 179.147491,484.817444 173.854507,493.018280 
	C166.780014,503.979431 169.969193,517.117126 179.444061,525.267273 
	C187.273071,532.001648 205.195786,530.459961 211.201080,522.633179 
	C216.679367,515.493286 218.523575,507.636841 216.277832,498.817749 
	C215.978607,497.642639 216.242538,495.739594 217.027100,494.957611 
	C242.610229,469.457489 268.289215,444.053528 293.573090,419.012482 
	C298.119751,423.385071 303.047974,428.117401 307.967865,432.858337 
	C311.850372,436.599640 313.895020,436.805145 317.793610,433.035309 
	C324.990601,426.076050 332.144714,419.064636 339.542816,412.323090 
	C349.580933,403.175842 360.954285,399.409332 374.429810,404.058716 
	C383.365051,407.141602 390.741211,412.032349 395.138275,420.557190 
	C397.864807,425.843384 400.067047,431.399994 402.403351,436.609406 
	C415.052460,433.434753 427.732758,433.930542 438.236359,442.007874 
	C448.892853,450.202789 453.352570,462.181519 451.855835,475.439941 
	C460.787415,475.762115 468.759277,477.227753 475.655121,482.142517 
	C487.226471,490.389618 493.960480,501.165649 491.789215,515.727661 
	C501.848969,517.695679 510.880249,519.463196 518.767151,526.135864 
	C527.544922,533.562134 532.455566,542.638123 532.701050,553.453796 
	C533.039673,568.372559 524.630188,579.979187 514.939575,590.427612 
	C512.727661,592.812561 512.219116,594.127563 514.512512,596.367371 
	C518.802612,600.557373 522.872192,604.984741 527.306152,609.013245 
	C533.228149,614.393677 540.113525,614.750793 547.769287,613.150574 
	C555.584045,611.517151 559.665039,606.005920 561.583374,599.639343 
	C563.198608,594.278442 563.625366,587.635742 559.345093,582.681213 
	C553.813904,576.278748 547.766785,570.323425 541.988586,564.131897 
	C540.885864,562.950195 539.849487,561.652832 539.044067,560.257812 
	C536.970825,556.667236 539.029846,550.932068 543.123230,548.564941 
	C545.509460,547.185059 551.127380,549.433411 552.924927,552.376831 
	C553.906433,553.984070 554.896729,555.670776 556.230408,556.963257 
	C561.423279,561.995972 566.592834,567.074524 572.078308,571.777710 
	C578.295959,577.108643 585.075745,580.805298 593.882690,578.275024 
	C607.587036,574.337646 611.707031,558.790649 605.937500,549.084106 
	C602.670715,543.588135 597.268616,539.270447 592.487488,534.785278 
	C583.775635,526.612793 574.730896,518.796143 565.974854,510.669525 
	C558.592529,503.817810 551.336670,496.823914 544.181763,489.734467 
	C536.490845,482.113831 528.893860,474.392395 521.476196,466.507660 
	C520.112000,465.057587 518.589111,462.065643 519.200684,460.727448 
	C522.697388,453.076324 529.333130,452.170013 534.450378,456.907898 
	C545.149780,466.814026 555.848572,476.722778 566.413574,486.771454 
	C574.521240,494.482941 582.423401,502.410492 590.417297,510.241608 
	C591.250366,511.057709 592.056641,511.903931 592.924438,512.681335 
	C600.573364,519.533203 609.160278,525.601990 615.653625,533.412354 
	C623.631714,543.008606 640.968750,543.898865 648.665833,533.266724 
	C654.384888,525.366821 653.503540,510.992401 645.757080,504.875854 
	C640.438904,500.676697 635.148926,496.408478 630.169312,491.820526 
	C618.672180,481.227509 607.309082,470.486511 596.011597,459.680084 
	C587.450134,451.490753 579.115051,443.065277 570.586426,434.841034 
	C568.495850,432.825043 566.134399,431.051941 563.736816,429.400360 
	C559.062256,426.180328 557.419678,419.067444 560.559875,414.986359 
	C563.487305,411.181885 569.642334,410.840973 574.091675,414.898285 
	C586.406189,426.127838 598.528564,437.569641 610.642517,449.016815 
	C615.876953,453.963165 620.849487,459.185638 626.036560,464.183472 
	C636.221252,473.996582 646.681396,483.533295 656.640991,493.568024 
	C667.610901,504.620636 685.046814,501.078064 690.812927,487.633392 
	C694.602173,478.798187 692.966492,469.930817 686.459656,464.110718 
	C678.472168,456.966217 670.611511,449.679565 662.716125,442.432465 
	C654.181152,434.598267 645.593201,426.819641 637.166321,418.870453 
	C625.893799,408.236908 614.848206,397.361847 603.521057,386.787689 
	C596.975952,380.677643 590.019348,375.010773 583.340881,369.040558 
	C578.458130,364.675629 573.710632,360.158569 568.931458,355.678802 
	C559.633606,346.963562 550.429016,338.145966 540.975464,329.603455 
	C539.817505,328.557037 536.618713,328.012421 535.643188,328.805878 
	C529.308167,333.958832 523.339600,339.561096 517.225464,344.987396 
	C512.318054,349.342712 507.785522,354.276642 502.368683,357.872101 
	C487.030853,368.052734 470.353027,372.020203 451.735504,369.008850 
	C439.950928,367.102692 429.842682,363.204437 422.000671,354.146851 
	C415.140350,346.223114 412.798889,337.155426 415.747559,326.976135 
	C418.113464,318.808563 423.304199,312.775635 429.552002,307.037933 
	C440.699310,296.800720 451.102020,285.751617 461.789185,275.015198 
	C465.070007,271.719269 468.317627,268.386627 471.481689,264.979095 
	C475.066193,261.118774 478.405670,257.023712 482.093811,253.268555 
	C487.328552,247.938736 492.784393,242.826096 498.327087,237.444641 
	C493.061951,235.745819 488.562378,233.492188 483.862152,232.936905 
	C472.518616,231.596802 461.494934,233.254929 450.998413,238.194168 
	C434.373108,246.017365 417.714325,253.779465 400.919647,261.229065 
	C389.935028,266.101532 379.740173,272.808319 367.179382,274.058380 
	C359.325775,274.840027 351.798431,275.405029 344.203156,272.877502 
	C328.532074,267.662567 312.806854,262.610657 297.117706,257.449707 
	C287.190338,254.184128 277.293610,250.825531 267.372131,247.541824 
	C261.197021,245.498047 255.712097,242.615448 250.975616,237.843872 
	C236.703354,223.465942 222.053909,209.462769 207.641098,195.222809 
	C207.035645,194.624603 206.942627,192.986481 207.260635,192.054550 
	C210.954376,181.229843 210.255539,171.716263 201.002930,163.449387 
	C193.204147,156.481461 182.449921,156.081833 174.060394,161.264603 
	C166.358139,166.022766 162.911606,172.827957 162.589951,181.962112 
	C162.197388,193.110031 171.876114,204.966553 184.080566,205.075485 
	C190.053650,205.128769 195.724579,202.626846 201.561905,209.345062 
	C215.497086,225.383026 231.117493,239.961960 246.175049,255.012329 
	C247.895035,256.731506 250.220474,258.079865 252.512329,258.947052 
	C258.925140,261.373566 265.448273,263.516144 271.962891,265.664551 
	C285.692810,270.192474 299.453461,274.627228 313.180939,279.162445 
	C315.852875,280.045166 318.387573,281.346039 321.063812,282.212250 
	C324.718933,283.395294 328.030182,285.232666 327.850983,289.415375 
	C327.647827,294.157898 322.590698,298.637604 318.160980,298.654022 
	C302.011078,298.713837 285.860809,298.690430 269.710693,298.671875 
	C267.808990,298.669678 265.400665,299.215485 264.095551,298.286865 
	C259.051483,294.697876 254.353287,290.621887 249.537811,286.713043 
	C243.849625,282.095795 238.001984,278.304596 230.083679,278.523743 
	C217.260147,278.878662 204.419113,278.734467 191.588776,278.558655 
	C189.774017,278.533813 187.584412,277.564941 186.243454,276.311035 
	C181.248581,271.640381 176.615982,266.584900 171.690262,261.836914 
	C167.854095,258.139130 163.633621,254.830795 159.917084,251.024124 
	C158.892624,249.974823 158.664520,247.734604 158.770065,246.085571 
	C158.962326,243.080841 160.506317,239.959808 159.999725,237.155884 
	C158.981049,231.517670 156.805145,226.148712 151.423737,221.895065 
M434.098297,481.517151 
	C436.530548,477.558960 436.479065,473.421539 435.989532,468.860962 
	C435.162872,461.159271 431.370270,456.113159 424.610504,452.886566 
	C414.843445,448.224579 407.191193,450.728516 399.215942,458.183258 
	C386.364563,470.195923 374.174561,482.924377 361.878876,495.520020 
	C355.594086,501.958191 348.419159,507.600891 349.749268,518.721008 
	C350.519897,525.163757 356.390656,533.617493 360.874969,535.434692 
	C371.369751,539.687622 379.036194,538.950439 387.472443,530.315918 
	C403.075684,514.346008 418.615631,498.314178 434.098297,481.517151 
M437.816071,561.268372 
	C441.502533,557.652466 445.185150,554.032532 448.876282,550.421387 
	C456.446350,543.015320 464.053040,535.646301 471.584137,528.200806 
	C478.090210,521.768616 479.709534,507.817078 474.314026,501.652191 
	C465.620422,491.718933 455.426239,490.312012 444.473206,496.372406 
	C440.367188,498.644257 437.575439,503.253815 434.102112,506.714844 
	C428.014587,512.780762 421.880951,518.800781 415.732452,524.804993 
	C412.110291,528.342224 408.397095,531.786072 404.769653,535.317871 
	C398.650726,541.275452 392.791046,546.771362 392.443939,556.750305 
	C391.942200,571.175110 409.516724,583.899475 421.440887,575.880127 
	C427.260651,571.966125 432.058472,566.532715 437.816071,561.268372 
M459.621552,613.681458 
	C462.399628,612.913086 465.891266,612.953491 467.834625,611.238953 
	C477.258240,602.924927 486.434418,594.309631 495.364563,585.464111 
	C501.625824,579.262207 507.848724,572.897644 513.167786,565.905090 
	C517.988525,559.567688 519.016602,551.487122 514.558350,544.819336 
	C510.317169,538.476257 504.217926,533.199097 495.409637,533.751587 
	C487.884491,534.223511 482.930176,539.401978 478.067200,544.077576 
	C468.757843,553.028259 460.014008,562.566101 450.998901,571.824646 
	C449.165588,573.707520 446.977112,575.269775 445.293518,577.267395 
	C442.369507,580.736816 439.422424,584.252869 437.058838,588.101807 
	C435.794067,590.161316 434.487091,593.575806 435.350555,595.303772 
	C437.994293,600.594421 441.167694,605.826416 445.113129,610.198669 
	C448.569397,614.028870 453.616150,615.743042 459.621552,613.681458 
M352.041290,422.256134 
	C349.599091,424.329773 347.013245,426.257965 344.739929,428.502655 
	C335.620789,437.506897 326.495819,446.509644 317.574890,455.708740 
	C311.181305,462.301697 309.444916,470.391785 312.376984,478.958923 
	C317.992767,495.367523 337.002625,497.701416 347.795593,486.955261 
	C358.567291,476.230286 368.691895,464.858002 379.360809,454.026184 
	C385.182373,448.115753 386.473999,441.355865 384.144287,433.863098 
	C382.131500,427.389618 377.885345,422.458618 371.394501,420.028717 
	C364.963928,417.621368 358.750458,419.032684 352.041290,422.256134 
z"/>
<path fill="#FCFCFC" opacity="1.000000" stroke="none" 
	d="
M151.681091,222.170731 
	C156.805145,226.148712 158.981049,231.517670 159.999725,237.155884 
	C160.506317,239.959808 158.962326,243.080841 158.770065,246.085571 
	C158.664520,247.734604 158.892624,249.974823 159.917084,251.024124 
	C163.633621,254.830795 167.854095,258.139130 171.690262,261.836914 
	C176.615982,266.584900 181.248581,271.640381 186.243454,276.311035 
	C187.584412,277.564941 189.774017,278.533813 191.588776,278.558655 
	C204.419113,278.734467 217.260147,278.878662 230.083679,278.523743 
	C238.001984,278.304596 243.849625,282.095795 249.537811,286.713043 
	C254.353287,290.621887 259.051483,294.697876 264.095551,298.286865 
	C265.400665,299.215485 267.808990,298.669678 269.710693,298.671875 
	C285.860809,298.690430 302.011078,298.713837 318.160980,298.654022 
	C322.590698,298.637604 327.647827,294.157898 327.850983,289.415375 
	C328.030182,285.232666 324.718933,283.395294 321.063812,282.212250 
	C318.387573,281.346039 315.852875,280.045166 313.180939,279.162445 
	C299.453461,274.627228 285.692810,270.192474 271.962891,265.664551 
	C265.448273,263.516144 258.925140,261.373566 252.512329,258.947052 
	C250.220474,258.079865 247.895035,256.731506 246.175049,255.012329 
	C231.117493,239.961960 215.497086,225.383026 201.561905,209.345062 
	C195.724579,202.626846 190.053650,205.128769 184.080566,205.075485 
	C171.876114,204.966553 162.197388,193.110031 162.589951,181.962112 
	C162.911606,172.827957 166.358139,166.022766 174.060394,161.264603 
	C182.449921,156.081833 193.204147,156.481461 201.002930,163.449387 
	C210.255539,171.716263 210.954376,181.229843 207.260635,192.054550 
	C206.942627,192.986481 207.035645,194.624603 207.641098,195.222809 
	C222.053909,209.462769 236.703354,223.465942 250.975616,237.843872 
	C255.712097,242.615448 261.197021,245.498047 267.372131,247.541824 
	C277.293610,250.825531 287.190338,254.184128 297.117706,257.449707 
	C312.806854,262.610657 328.532074,267.662567 344.203156,272.877502 
	C351.798431,275.405029 359.325775,274.840027 367.179382,274.058380 
	C379.740173,272.808319 389.935028,266.101532 400.919647,261.229065 
	C417.714325,253.779465 434.373108,246.017365 450.998413,238.194168 
	C461.494934,233.254929 472.518616,231.596802 483.862152,232.936905 
	C488.562378,233.492188 493.061951,235.745819 498.327087,237.444641 
	C492.784393,242.826096 487.328552,247.938736 482.093811,253.268555 
	C478.405670,257.023712 475.066193,261.118774 471.481689,264.979095 
	C468.317627,268.386627 465.070007,271.719269 461.789185,275.015198 
	C451.102020,285.751617 440.699310,296.800720 429.552002,307.037933 
	C423.304199,312.775635 418.113464,318.808563 415.747559,326.976135 
	C412.798889,337.155426 415.140350,346.223114 422.000671,354.146851 
	C429.842682,363.204437 439.950928,367.102692 451.735504,369.008850 
	C470.353027,372.020203 487.030853,368.052734 502.368683,357.872101 
	C507.785522,354.276642 512.318054,349.342712 517.225464,344.987396 
	C523.339600,339.561096 529.308167,333.958832 535.643188,328.805878 
	C536.618713,328.012421 539.817505,328.557037 540.975464,329.603455 
	C550.429016,338.145966 559.633606,346.963562 568.931458,355.678802 
	C573.710632,360.158569 578.458130,364.675629 583.340881,369.040558 
	C590.019348,375.010773 596.975952,380.677643 603.521057,386.787689 
	C614.848206,397.361847 625.893799,408.236908 637.166321,418.870453 
	C645.593201,426.819641 654.181152,434.598267 662.716125,442.432465 
	C670.611511,449.679565 678.472168,456.966217 686.459656,464.110718 
	C692.966492,469.930817 694.602173,478.798187 690.812927,487.633392 
	C685.046814,501.078064 667.610901,504.620636 656.640991,493.568024 
	C646.681396,483.533295 636.221252,473.996582 626.036560,464.183472 
	C620.849487,459.185638 615.876953,453.963165 610.642517,449.016815 
	C598.528564,437.569641 586.406189,426.127838 574.091675,414.898285 
	C569.642334,410.840973 563.487305,411.181885 560.559875,414.986359 
	C557.419678,419.067444 559.062256,426.180328 563.736816,429.400360 
	C566.134399,431.051941 568.495850,432.825043 570.586426,434.841034 
	C579.115051,443.065277 587.450134,451.490753 596.011597,459.680084 
	C607.309082,470.486511 618.672180,481.227509 630.169312,491.820526 
	C635.148926,496.408478 640.438904,500.676697 645.757080,504.875854 
	C653.503540,510.992401 654.384888,525.366821 648.665833,533.266724 
	C640.968750,543.898865 623.631714,543.008606 615.653625,533.412354 
	C609.160278,525.601990 600.573364,519.533203 592.924438,512.681335 
	C592.056641,511.903931 591.250366,511.057709 590.417297,510.241608 
	C582.423401,502.410492 574.521240,494.482941 566.413574,486.771454 
	C555.848572,476.722778 545.149780,466.814026 534.450378,456.907898 
	C529.333130,452.170013 522.697388,453.076324 519.200684,460.727448 
	C518.589111,462.065643 520.112000,465.057587 521.476196,466.507660 
	C528.893860,474.392395 536.490845,482.113831 544.181763,489.734467 
	C551.336670,496.823914 558.592529,503.817810 565.974854,510.669525 
	C574.730896,518.796143 583.775635,526.612793 592.487488,534.785278 
	C597.268616,539.270447 602.670715,543.588135 605.937500,549.084106 
	C611.707031,558.790649 607.587036,574.337646 593.882690,578.275024 
	C585.075745,580.805298 578.295959,577.108643 572.078308,571.777710 
	C566.592834,567.074524 561.423279,561.995972 556.230408,556.963257 
	C554.896729,555.670776 553.906433,553.984070 552.924927,552.376831 
	C551.127380,549.433411 545.509460,547.185059 543.123230,548.564941 
	C539.029846,550.932068 536.970825,556.667236 539.044067,560.257812 
	C539.849487,561.652832 540.885864,562.950195 541.988586,564.131897 
	C547.766785,570.323425 553.813904,576.278748 559.345093,582.681213 
	C563.625366,587.635742 563.198608,594.278442 561.583374,599.639343 
	C559.665039,606.005920 555.584045,611.517151 547.769287,613.150574 
	C540.113525,614.750793 533.228149,614.393677 527.306152,609.013245 
	C522.872192,604.984741 518.802612,600.557373 514.512512,596.367371 
	C512.219116,594.127563 512.727661,592.812561 514.939575,590.427612 
	C524.630188,579.979187 533.039673,568.372559 532.701050,553.453796 
	C532.455566,542.638123 527.544922,533.562134 518.767151,526.135864 
	C510.880249,519.463196 501.848969,517.695679 491.789215,515.727661 
	C493.960480,501.165649 487.226471,490.389618 475.655121,482.142517 
	C468.759277,477.227753 460.787415,475.762115 451.855835,475.439941 
	C453.352570,462.181519 448.892853,450.202789 438.236359,442.007874 
	C427.732758,433.930542 415.052460,433.434753 402.403351,436.609406 
	C400.067047,431.399994 397.864807,425.843384 395.138275,420.557190 
	C390.741211,412.032349 383.365051,407.141602 374.429810,404.058716 
	C360.954285,399.409332 349.580933,403.175842 339.542816,412.323090 
	C332.144714,419.064636 324.990601,426.076050 317.793610,433.035309 
	C313.895020,436.805145 311.850372,436.599640 307.967865,432.858337 
	C303.047974,428.117401 298.119751,423.385071 293.573090,419.012482 
	C268.289215,444.053528 242.610229,469.457489 217.027100,494.957611 
	C216.242538,495.739594 215.978607,497.642639 216.277832,498.817749 
	C218.523575,507.636841 216.679367,515.493286 211.201080,522.633179 
	C205.195786,530.459961 187.273071,532.001648 179.444061,525.267273 
	C169.969193,517.117126 166.780014,503.979431 173.854507,493.018280 
	C179.147491,484.817444 189.817657,480.848267 199.314270,483.661255 
	C202.674606,484.656647 205.649536,485.379303 208.712097,481.004700 
	C212.438004,475.682495 218.509155,472.054504 223.246063,467.370331 
	C226.755432,463.899963 229.575943,459.740265 233.018112,456.193146 
	C240.016403,448.981415 247.229248,441.977997 254.350418,434.885437 
	C257.799347,431.450348 261.177704,427.941437 264.702942,424.586700 
	C268.520905,420.953461 272.543457,417.534393 276.342072,413.881866 
	C278.998169,411.327942 281.704071,408.736877 283.836639,405.766754 
	C284.829803,404.383484 285.454437,401.155090 284.640808,400.311646 
	C279.364319,394.841949 274.002045,389.324341 267.949585,384.778839 
	C263.752777,381.626953 254.077438,383.905792 250.265549,387.424683 
	C243.899750,393.301117 237.571198,399.249756 230.815048,404.652893 
	C228.660034,406.376343 225.211624,407.134094 222.332855,407.189972 
	C208.671890,407.454956 195.003189,407.308197 181.337479,407.364227 
	C180.141373,407.369110 178.570770,407.370483 177.809906,408.067535 
	C170.158279,415.077057 162.691956,422.288666 155.057480,429.317383 
	C152.035614,432.099457 151.406464,435.086639 153.234482,438.696594 
	C154.744690,441.678925 155.381195,444.491486 152.684219,447.371490 
	C151.935486,448.171082 152.501846,450.077271 152.144348,451.388367 
	C149.820831,459.909607 143.033890,464.211426 135.461990,465.997284 
	C120.916687,469.427887 110.517395,459.938263 107.184326,448.102081 
	C105.419678,441.835510 106.964706,434.927338 111.428375,428.847473 
	C118.823555,418.774658 128.614883,419.274170 139.070633,420.776703 
	C140.386719,420.965851 142.285950,420.739990 143.143845,419.909637 
	C151.492706,411.829163 159.672058,403.573669 167.911362,395.379730 
	C170.832214,392.474945 173.985123,390.774628 178.497772,390.878937 
	C192.292557,391.197693 206.127136,391.436890 219.884430,390.639954 
	C223.568481,390.426575 227.317413,386.741364 230.530334,384.046448 
	C235.541916,379.842834 239.932480,374.895020 244.976044,370.735229 
	C247.011337,369.056580 250.038254,367.894348 252.676758,367.763397 
	C260.154449,367.392212 267.664673,367.670532 275.162018,367.701569 
	C280.101013,367.721985 282.290710,364.632141 283.645447,360.416443 
	C285.112732,355.850525 282.462738,352.954041 279.615814,350.179657 
	C279.175446,349.750519 278.037354,349.997009 277.222076,349.998749 
	C231.060516,350.097656 184.897980,350.378357 138.738464,350.119476 
	C131.868301,350.080933 127.215652,352.012695 122.989960,357.169617 
	C116.762276,364.769714 106.546791,366.331665 97.595848,362.158966 
	C90.560860,358.879425 86.166077,353.616791 84.877144,346.132782 
	C82.923515,334.789368 85.696465,324.825012 96.449692,319.230957 
	C107.185463,313.645935 122.434364,316.731964 128.658966,329.985260 
	C130.018112,332.879211 131.466049,333.954041 134.668320,333.946045 
	C187.574280,333.813843 240.480545,333.811523 293.386749,333.759521 
	C298.254028,333.754730 300.777283,330.773438 300.881714,325.107391 
	C300.984344,319.539368 297.199188,315.163818 291.925720,315.095734 
	C283.619659,314.988464 275.267975,314.554474 267.016449,315.236633 
	C259.712250,315.840454 255.091766,311.844635 250.015732,307.925659 
	C244.498917,303.666351 238.775253,299.666595 233.019455,295.732635 
	C231.932220,294.989563 230.272644,294.835999 228.875946,294.831879 
	C214.711258,294.790131 200.536621,295.120056 186.388977,294.636993 
	C183.253616,294.529999 179.667831,292.219116 177.227951,289.924896 
	C168.734085,281.937958 160.084976,273.986969 152.633575,265.070679 
	C148.384064,259.985718 143.902771,261.152863 139.537659,262.154968 
	C132.217804,263.835358 121.331764,260.461487 117.135612,253.903656 
	C111.870163,245.674713 110.130371,237.001221 115.290253,228.065186 
	C120.806229,218.512482 135.032990,211.631729 146.086807,218.435364 
	C147.891785,219.546341 149.646042,220.739761 151.681091,222.170731 
M293.502594,300.056580 
	C286.554474,300.056580 279.606354,300.056580 272.658264,300.056580 
	C272.661987,300.289581 272.665741,300.522552 272.669495,300.755554 
	C287.077362,300.755554 301.485260,300.755554 315.893127,300.755554 
	C315.894775,300.515045 315.896423,300.274506 315.898102,300.033997 
	C308.766510,300.033997 301.634949,300.033997 293.502594,300.056580 
M207.598419,280.006897 
	C205.041840,280.006897 202.485245,280.006897 199.928665,280.006897 
	C199.944809,280.241150 199.960938,280.475372 199.977081,280.709625 
	C211.768677,280.709625 223.560272,280.709625 235.351868,280.709625 
	C235.352585,280.472687 235.353287,280.235779 235.353989,279.998840 
	C226.426620,279.998840 217.499237,279.998840 207.598419,280.006897 
M222.489319,348.100586 
	C215.633636,348.100586 208.777939,348.100586 201.922256,348.100586 
	C201.925812,348.316071 201.929382,348.531525 201.932938,348.747009 
	C213.228149,348.747009 224.523346,348.747009 235.818558,348.747009 
	C235.820267,348.520508 235.821976,348.294006 235.823700,348.067505 
	C231.710068,348.067505 227.596451,348.067505 222.489319,348.100586 
M160.514694,349.023102 
	C166.969299,349.023102 173.423904,349.023102 179.878510,349.023102 
	C179.873856,348.762817 179.869217,348.502533 179.864578,348.242249 
	C169.127151,348.242249 158.389740,348.242249 147.652313,348.242249 
	C147.647980,348.506653 147.643646,348.771088 147.639313,349.035492 
	C151.600174,349.035492 155.561035,349.035492 160.514694,349.023102 
M196.246994,348.141602 
	C196.123306,348.237244 195.978043,348.317322 195.890305,348.438904 
	C195.866867,348.471405 196.016510,348.716217 196.091400,348.718658 
	C196.784180,348.741211 197.477997,348.731934 198.171494,348.731934 
	C198.165787,348.559265 198.160065,348.386597 198.154343,348.213898 
	C197.707062,348.159363 197.259766,348.104797 196.246994,348.141602 
z"/>
<path fill="#FCFCFC" opacity="1.000000" stroke="none" 
	d="
M792.941895,295.951843 
	C787.873413,299.637695 782.573120,303.048859 777.796631,307.080719 
	C772.166687,311.833069 766.845825,315.922150 758.604553,315.251190 
	C748.513245,314.429596 738.310974,315.007202 728.157532,314.898285 
	C722.682556,314.839539 719.181519,317.823456 719.298462,323.091705 
	C719.422729,328.692688 723.390808,333.667511 730.086365,333.693909 
	C753.055664,333.784515 776.025208,333.820282 798.994690,333.835114 
	C831.755005,333.856293 864.515259,333.840515 897.666504,333.840515 
	C900.279907,325.347198 905.966125,320.121490 914.757019,317.582245 
	C921.559692,315.617279 927.848694,316.648651 932.976318,320.466248 
	C944.378113,328.955048 945.375732,337.844238 941.739380,348.808716 
	C936.791809,363.726715 918.778748,370.259247 905.708313,357.951752 
	C903.491821,355.864716 901.680603,353.343414 899.435364,351.292969 
	C898.626709,350.554504 897.092651,350.343811 895.889160,350.342682 
	C844.725098,350.294647 793.560913,350.299622 742.396790,350.291473 
	C736.734619,350.290588 732.905762,353.323792 732.921631,357.845306 
	C732.938782,362.758240 737.711243,367.646149 742.604553,367.664520 
	C752.392944,367.701263 762.195618,367.386078 771.962891,367.844788 
	C775.643250,368.017670 779.820435,369.128326 782.746948,371.234589 
	C787.577698,374.711487 791.436584,379.504913 795.963867,383.446350 
	C800.874756,387.721893 805.688538,391.722137 813.213074,391.268799 
	C825.490173,390.529083 837.857483,390.353790 850.128662,391.016113 
	C853.847107,391.216797 857.896240,394.409973 860.884338,397.204895 
	C868.049011,403.906433 874.656433,411.202087 881.526855,418.220703 
	C883.630066,420.369263 885.251892,421.455353 889.223083,420.610840 
	C897.802368,418.786407 907.189880,418.733582 913.610901,426.329193 
	C918.947144,432.641541 921.247009,439.722229 919.357300,448.846069 
	C917.112549,459.683502 904.970886,466.996918 896.954224,466.913971 
	C885.703125,466.797577 872.838318,459.088135 873.179321,444.729553 
	C873.261963,441.248474 873.656494,437.773163 873.685730,434.293335 
	C873.696594,433.006470 873.484314,431.290955 872.668152,430.490448 
	C865.046326,423.014801 857.303894,415.660339 849.489929,408.385132 
	C848.692810,407.642944 847.200928,407.358337 846.028687,407.351776 
	C833.031555,407.279083 820.033020,407.214478 807.036743,407.340881 
	C801.047913,407.399109 796.388611,405.377777 792.244324,400.886597 
	C787.462158,395.704041 782.027039,391.107544 776.728027,386.423370 
	C772.131042,382.359619 759.664673,382.761749 756.218445,385.601044 
	C752.671814,388.523071 749.983215,392.489685 746.943359,396.020172 
	C746.534180,396.495422 746.372559,397.211914 745.917664,397.615509 
	C739.802551,403.041565 739.744324,403.082764 745.370483,408.741699 
	C769.711548,433.224091 794.086548,457.672852 818.442932,482.140045 
	C820.458984,484.165222 822.388000,484.996826 825.512878,483.892029 
	C835.755798,480.270691 848.419983,484.151367 853.825195,493.203522 
	C862.378845,507.528625 853.517517,526.139221 837.850525,529.266663 
	C829.016418,531.030273 822.567139,527.638733 816.750977,523.095032 
	C813.316711,520.412048 812.315186,514.679871 810.062012,510.401978 
	C807.843994,506.190979 809.977173,502.417450 810.736755,498.419952 
	C811.009094,496.986542 810.122559,494.839905 809.039795,493.719727 
	C800.032043,484.401306 790.878296,475.223267 781.720337,466.051117 
	C775.590149,459.911469 769.355408,453.876282 763.215820,447.745972 
	C758.387268,442.924896 753.541870,438.115082 748.870544,433.143768 
	C744.244324,428.220306 739.826599,423.100861 735.135559,417.864380 
	C731.619263,421.757660 729.304260,424.623535 726.679688,427.170441 
	C718.550842,435.058624 710.373840,442.901733 702.007141,450.533936 
	C701.058289,451.399445 698.141846,451.564331 697.228577,450.781494 
	C690.079895,444.653534 683.194336,438.218292 676.236511,431.868134 
	C675.008972,430.747864 673.818726,429.586609 672.618530,428.436676 
	C662.907898,419.132935 653.194153,409.832428 643.491882,400.519928 
	C639.356995,396.551147 635.332336,392.463226 631.106934,388.593903 
	C624.115662,382.191833 616.995850,375.930359 609.946533,369.591553 
	C608.585815,368.367981 607.322937,367.036194 605.975830,365.796783 
	C593.695557,354.498627 581.376587,343.242249 569.134033,331.903290 
	C563.812683,326.974640 558.569092,321.956512 553.423767,316.844635 
	C547.182434,310.643921 535.517700,309.048492 528.448364,314.387695 
	C521.289490,319.794556 514.687134,325.947083 507.927490,331.871582 
	C497.036316,341.417206 486.064636,350.345093 470.700958,352.144257 
	C461.599457,353.210083 452.969116,353.478790 444.333130,350.128967 
	C433.924469,346.091583 430.794403,336.977386 434.150970,327.894226 
	C435.360809,324.620178 438.499847,321.939453 441.092072,319.317810 
	C449.591125,310.722351 458.365814,302.397644 466.798645,293.739075 
	C473.719849,286.632660 480.161804,279.058929 487.098053,271.968079 
	C490.624207,268.363312 494.998352,265.593964 498.575775,262.031799 
	C502.295319,258.328125 505.144928,253.709488 509.032654,250.224640 
	C517.165161,242.934753 525.652527,235.706284 536.874756,233.905182 
	C550.742249,231.679565 564.317871,232.513779 577.400330,238.770920 
	C596.398499,247.857452 615.603210,256.521851 634.843628,265.088104 
	C643.992371,269.161316 653.360107,272.207397 663.433105,274.114594 
	C674.941711,276.293671 684.806519,272.917511 694.980530,269.771912 
	C709.949097,265.143921 724.716797,259.864868 739.560486,254.834732 
	C748.644409,251.756454 757.728333,248.675842 766.763733,245.459824 
	C768.047974,245.002716 769.170227,243.885620 770.176270,242.882294 
	C785.981384,227.119720 801.749817,211.320343 817.543335,195.546051 
	C819.328613,193.762939 820.041382,192.462250 819.099426,189.364273 
	C813.768738,171.831665 825.453491,157.264694 843.127197,157.793945 
	C851.630188,158.048569 857.375488,163.390274 861.643433,170.266663 
	C865.186523,175.974991 866.006165,182.024475 864.116943,188.720978 
	C861.847290,196.765884 853.020752,204.983215 844.468872,204.948395 
	C840.975830,204.934174 837.485046,204.305283 833.992493,204.297150 
	C832.688904,204.294113 831.051331,204.926834 830.127441,205.838531 
	C814.129700,221.625610 797.924194,237.220520 782.437866,253.498383 
	C776.380493,259.865295 768.580383,261.419128 761.196716,264.099182 
	C744.422607,270.187714 727.384460,275.546722 710.476257,281.269379 
	C705.618713,282.913452 705.863037,287.270416 706.275940,291.016754 
	C706.686523,294.742584 708.269653,298.610504 712.926697,298.657684 
	C728.741577,298.817902 744.563660,298.903656 760.371033,298.521729 
	C762.981750,298.458649 765.767639,296.210663 768.063049,294.441162 
	C773.308533,290.397522 778.041260,285.642426 783.501587,281.942657 
	C786.354858,280.009308 790.287048,278.878326 793.765442,278.795868 
	C807.756104,278.464233 821.760620,278.752899 835.757812,278.605865 
	C837.408997,278.588531 839.434753,277.694611 840.627502,276.531128 
	C848.136902,269.205994 855.445923,261.675690 862.870117,254.262268 
	C863.486816,253.646454 864.469849,253.400879 865.275940,252.970764 
	C868.558594,251.219345 869.995728,248.193176 868.838562,244.938553 
	C864.775879,233.511703 871.566650,222.077484 882.750427,217.405899 
	C895.773315,211.966110 912.747375,222.141724 914.248657,236.256653 
	C915.604248,249.001740 907.993774,258.161346 899.218262,261.531830 
	C893.438293,263.751770 888.071655,263.036133 882.450378,261.141449 
	C880.999695,260.652466 878.427856,261.271637 877.313599,262.353027 
	C868.265442,271.134308 859.533875,280.241669 850.490295,289.027740 
	C847.953979,291.491760 844.700562,293.217651 841.142456,294.893097 
	C825.879456,294.441620 811.249939,294.339752 796.620972,294.388214 
	C795.392883,294.392273 794.168152,295.406769 792.941895,295.951843 
M835.499695,349.015015 
	C849.282288,349.015015 863.064941,349.015015 876.847534,349.015015 
	C876.844910,348.749176 876.842285,348.483307 876.839722,348.217468 
	C852.785767,348.217468 828.731873,348.217468 804.677979,348.217468 
	C804.676270,348.469604 804.674561,348.721710 804.672852,348.973846 
	C814.615173,348.973846 824.557495,348.973846 835.499695,349.015015 
M729.503784,300.025818 
	C724.423706,300.025818 719.343628,300.025818 714.263550,300.025818 
	C714.272766,300.251404 714.282043,300.476959 714.291321,300.702545 
	C728.135986,300.702545 741.980713,300.702545 755.825439,300.702545 
	C755.825073,300.465698 755.824768,300.228821 755.824463,299.991974 
	C747.383728,299.991974 738.943054,299.991974 729.503784,300.025818 
M828.289551,279.984589 
	C816.415161,279.984589 804.540710,279.984589 792.666321,279.984589 
	C792.668579,280.229401 792.670837,280.474243 792.673096,280.719055 
	C806.478638,280.719055 820.284241,280.719055 834.089783,280.719055 
	C834.096008,280.474762 834.102234,280.230499 834.108459,279.986206 
	C832.477417,279.986206 830.846436,279.986206 828.289551,279.984589 
z"/>
<path fill="#FCFCFC" opacity="1.000000" stroke="none" 
	d="
M172.763062,832.089539 
	C172.779480,821.545166 172.803711,811.000854 172.809372,800.456482 
	C172.812729,794.187012 172.768921,787.917603 172.777252,781.648132 
	C172.815201,753.039795 172.874908,724.431458 172.901001,695.823120 
	C172.907013,689.213623 172.634689,682.596863 172.898682,675.999817 
	C172.957718,674.524353 174.714783,671.883362 175.721848,671.868103 
	C187.135269,671.694519 198.554855,671.927612 210.111298,672.368652 
	C199.509674,672.685486 188.769531,672.685486 178.029388,672.685486 
	C178.033463,673.106445 178.037521,673.527344 178.041595,673.948303 
	C189.147141,673.948303 200.252747,673.961426 211.358032,673.908997 
	C211.905258,673.906433 212.449799,673.332092 212.995605,673.023987 
	C213.437683,672.991394 213.879761,672.958801 214.804489,673.210449 
	C221.674286,673.660034 228.061981,673.968323 234.448410,673.944214 
	C239.313843,673.925781 244.177689,673.485596 249.042236,673.233032 
	C265.683807,672.169434 279.835785,677.821350 290.766022,690.200439 
	C296.069855,696.207336 299.721588,703.663147 299.048920,712.208801 
	C298.585327,718.098145 298.458191,724.219543 296.670044,729.748779 
	C294.241425,737.258667 288.233765,742.318481 281.548309,746.396729 
	C280.186951,747.227173 278.922058,748.215759 277.383240,749.291870 
	C293.027222,753.366211 302.777863,763.192993 306.020355,778.139587 
	C310.115723,797.017334 301.024963,818.329041 280.667297,826.198975 
	C272.544678,829.339050 264.642975,832.339294 255.263626,831.958862 
	C254.711960,832.001404 254.527252,832.017822 254.180389,831.711365 
	C253.019348,831.275696 252.205246,831.034302 251.390961,831.033569 
	C226.798630,831.011963 202.206268,831.000000 177.614044,831.054565 
	C176.403702,831.057251 175.194733,831.673584 173.679413,832.022949 
	C173.170166,832.057617 172.966614,832.073608 172.763062,832.089539 
M259.170349,766.205688 
	C256.763916,765.527771 254.374252,764.346863 251.947861,764.265808 
	C244.547241,764.018799 237.132492,764.200317 229.723236,764.206055 
	C222.060349,764.211914 214.397461,764.207336 205.893158,764.207336 
	C205.893158,775.706482 205.875626,786.800110 205.899445,797.893616 
	C205.914825,805.058411 205.955429,805.222351 213.083832,805.057617 
	C226.261185,804.753113 239.431503,804.086975 252.609528,803.887573 
	C260.620758,803.766296 270.562958,797.645142 271.813385,787.758118 
	C272.993042,778.430847 270.320129,769.960510 259.170349,766.205688 
M205.877960,727.450256 
	C206.089508,730.510681 206.301056,733.571167 206.539581,737.021851 
	C217.792542,737.021851 228.587570,737.232910 239.367767,736.924744 
	C244.110733,736.789185 248.925934,735.990662 253.526016,734.792908 
	C260.476532,732.983093 265.885712,725.761658 266.092224,718.944580 
	C266.293488,712.299377 261.517975,705.419373 254.407822,703.315002 
	C250.775909,702.240051 246.761978,702.196472 242.915543,702.153870 
	C230.744278,702.018799 218.570557,702.103943 205.877151,702.103943 
	C205.877151,710.576843 205.877151,718.521423 205.877960,727.450256 
z"/>
<path fill="#FAFAFA" opacity="1.000000" stroke="none" 
	d="
M652.049133,806.058350 
	C661.440613,804.439209 667.641235,799.264221 670.076172,789.888184 
	C670.977783,786.416626 666.461975,776.824158 663.179443,775.041870 
	C651.869690,768.901001 639.148438,767.538147 627.048035,764.035034 
	C615.351929,760.648926 603.284729,758.168091 593.227051,749.933655 
	C582.922546,741.497070 578.594238,731.425720 579.006958,718.395935 
	C579.202576,712.219421 579.655273,706.406372 581.811584,700.496399 
	C586.422607,687.858704 595.569458,680.163696 607.474792,675.174194 
	C619.775269,670.019165 632.816528,668.646851 645.858643,669.850159 
	C659.112854,671.073059 671.655396,674.446655 682.853943,682.989807 
	C691.184448,689.345032 694.590820,697.846375 697.997253,706.674011 
	C699.294189,710.034973 698.849854,714.067871 699.193115,717.729858 
	C688.281921,718.602600 677.768982,719.443481 667.225586,720.286804 
	C666.763855,708.389221 657.283386,700.526855 647.397095,698.158997 
	C639.358704,696.233826 631.651123,696.990234 624.008545,699.360413 
	C618.172058,701.170410 613.527527,705.461182 612.273499,711.035767 
	C610.996460,716.713074 611.932495,723.627075 617.685120,726.944885 
	C623.173706,730.110352 629.535339,731.937500 635.695129,733.726929 
	C648.101318,737.331177 660.900085,739.753113 673.038818,744.064880 
	C686.781799,748.946472 697.412781,757.760681 701.461548,772.824768 
	C705.479004,787.771851 703.553284,801.944763 694.328796,814.111450 
	C686.596130,824.310486 675.570984,830.752319 662.775818,833.032104 
	C653.916321,834.610596 644.847046,836.309631 635.936829,836.010193 
	C621.537903,835.526367 607.122803,833.281128 595.264526,824.006042 
	C587.408997,817.861816 579.885620,811.151001 577.415039,800.704346 
	C576.049316,794.929688 574.531555,789.191101 572.956848,782.937744 
	C584.592773,781.910461 594.875366,781.299255 605.049988,779.901978 
	C607.692139,779.539124 608.117615,779.872437 608.262634,782.014465 
	C608.986206,792.701904 616.910706,802.298950 627.497314,805.378235 
	C635.502136,809.755249 643.454895,809.447144 651.493530,807.646606 
	C651.782776,807.581787 651.868530,806.608337 652.049133,806.058350 
z"/>
<path fill="#FBFBFB" opacity="1.000000" stroke="none" 
	d="
M448.800232,831.186646 
	C445.292999,821.759521 441.377472,812.455383 438.483215,802.843689 
	C437.354462,799.095215 434.813507,798.641174 432.496796,798.545288 
	C425.845917,798.270081 419.162048,798.922974 412.497528,798.815430 
	C402.889343,798.660522 393.268860,798.405273 383.688354,797.712585 
	C377.595886,797.272095 375.101257,798.477600 372.938263,804.461304 
	C369.522980,813.908875 366.061096,823.339600 362.532257,833.015198 
	C351.735565,833.015198 340.794708,833.045410 329.855194,832.937073 
	C329.227783,832.930847 328.611542,831.794678 328.644867,831.356812 
	C339.588684,831.529175 349.877777,831.529175 360.166840,831.529175 
	C360.167633,831.281860 360.168427,831.034485 360.169189,830.787170 
	C349.716431,830.787170 339.263641,830.787170 328.810883,830.787170 
	C332.064026,821.428345 335.275513,812.054749 338.579041,802.713745 
	C345.334534,783.612122 352.054047,764.497131 358.945740,745.444580 
	C367.477234,721.858582 376.168396,698.330383 385.425995,674.541504 
	C398.909576,674.203613 411.757721,674.084961 424.606140,674.042053 
	C425.340057,674.039612 426.076019,674.655640 426.811035,674.983887 
	C429.925598,682.886169 433.147430,690.748230 436.131409,698.699463 
	C441.562897,713.172546 446.937225,727.668274 452.180817,742.210327 
	C458.518768,759.787354 464.565582,777.470032 470.986847,795.016113 
	C475.565918,807.528442 480.554871,819.890747 485.561035,832.837585 
	C473.093201,832.837585 461.188385,832.837585 449.608948,832.415405 
	C459.990448,831.993164 470.046600,831.993164 480.102722,831.993164 
	C480.099548,831.724304 480.096405,831.455505 480.093231,831.186646 
	C469.662231,831.186646 459.231232,831.186646 448.800232,831.186646 
M388.964478,769.739807 
	C401.886200,769.739807 414.807922,769.739807 427.915619,769.739807 
	C420.673706,749.118774 413.567108,728.883057 406.236237,708.008667 
	C398.828796,728.985352 391.670837,749.255554 384.436768,769.741272 
	C386.108521,769.741272 387.106079,769.741272 388.964478,769.739807 
z"/>
<path fill="#FDFDFD" opacity="1.000000" stroke="none" 
	d="
M733.117432,673.294861 
	C734.160950,673.262756 735.204407,673.230713 736.912109,673.509155 
	C745.169739,673.819702 752.763184,673.819702 760.356689,673.819702 
	C758.604431,672.951904 756.828613,673.057556 755.069885,672.929260 
	C751.704285,672.683777 748.348389,672.305115 744.988464,671.981689 
	C751.238892,671.981689 757.489258,671.981689 764.057495,671.981689 
	C764.057495,693.230713 764.057495,714.276672 764.057495,735.537659 
	C765.632141,735.608032 766.902466,735.664795 768.386780,736.124817 
	C768.069275,736.840271 767.537781,737.152527 766.119629,737.985596 
	C788.154480,737.985596 809.264832,738.012024 830.374207,737.888794 
	C831.216492,737.883911 832.050537,736.458008 832.888489,735.694214 
	C832.930237,728.436523 832.971985,721.178894 833.256531,713.461914 
	C833.499390,713.002563 833.794312,713.003113 833.905090,713.460449 
	C834.015869,720.150208 834.015869,726.382690 834.015869,732.615112 
	C834.341003,732.615051 834.666138,732.614929 834.991272,732.614807 
	C834.991272,713.229187 834.991272,693.843567 834.991272,673.998474 
	C845.710327,673.998474 855.976501,673.998474 866.242676,673.998474 
	C866.252991,674.595154 866.263306,675.191895 866.192322,675.969482 
	C865.942688,676.149414 865.774231,676.148315 865.354797,676.164612 
	C865.271851,676.405457 865.439941,676.628967 865.824341,676.886841 
	C866.040710,676.921265 866.042236,676.483154 866.042236,676.483154 
	C866.134399,677.035156 866.226562,677.587158 865.982056,678.825562 
	C865.827393,682.674866 866.009277,685.837830 866.191162,689.000732 
	C866.243164,690.400208 866.295166,691.799683 865.806213,693.690186 
	C864.981873,696.019226 864.698486,697.857361 864.423462,699.927551 
	C864.366150,700.623352 864.300476,701.086975 864.167480,702.059631 
	C864.218445,704.609314 864.336731,706.650085 864.490967,708.785889 
	C864.527039,708.880920 864.465149,709.275024 864.357483,709.671692 
	C864.537598,712.391724 864.825378,714.715088 865.166626,717.409912 
	C865.577271,718.853577 865.934448,719.925903 866.291626,720.998169 
	C866.284302,723.387878 866.276978,725.777649 865.805786,728.626953 
	C865.576843,729.724304 865.811768,730.362183 866.046753,731.000000 
	C866.128296,733.089050 866.209839,735.178162 865.998657,737.812500 
	C865.894592,739.573853 866.083313,740.789795 866.272095,742.005798 
	C866.287842,742.447144 866.303650,742.888428 865.941650,743.869751 
	C865.803162,746.941528 866.042480,749.473389 866.281799,752.005249 
	C866.300781,753.068909 866.319702,754.132629 865.995972,755.654785 
	C865.869995,756.744934 866.086670,757.376587 866.303345,758.008240 
	C866.324402,759.391052 866.345520,760.773804 866.056396,762.742554 
	C865.533936,765.862732 865.321777,768.396973 864.801758,771.201965 
	C864.379211,773.142761 864.264465,774.812683 864.455200,776.723450 
	C864.807373,779.651794 864.854004,782.339417 864.625977,785.332153 
	C864.316772,787.915222 864.282349,790.192993 864.247803,792.485107 
	C864.247620,792.499390 864.246948,792.527832 864.180176,792.990295 
	C864.505920,796.032837 864.898560,798.612854 865.282959,801.642761 
	C865.183960,809.727600 865.093201,817.362549 865.001221,824.998779 
	C865.000000,825.000000 864.997498,825.004089 864.837036,825.258301 
	C864.603699,826.318237 864.530823,827.123901 864.281799,828.329895 
	C863.427368,829.477051 862.759583,830.862671 862.069092,830.873962 
	C853.164246,831.020264 844.256226,830.970764 835.001526,830.970764 
	C835.001526,828.693481 835.001526,827.059021 835.001526,825.424500 
	C835.001648,808.644043 835.040649,791.863342 834.957703,775.083313 
	C834.946045,772.725403 834.338135,770.370422 833.923462,767.808960 
	C833.686890,767.340149 833.471802,767.143616 833.195435,767.014160 
	C832.403381,766.606506 831.611206,765.842896 830.819214,765.843079 
	C809.169922,765.848145 787.520630,765.929199 765.871399,766.012878 
	C765.400940,766.014709 764.931152,766.194092 763.713074,766.444214 
	C763.713074,787.608582 763.713074,808.868530 763.228760,830.558838 
	C762.181519,830.987671 761.618713,830.986206 760.583801,830.972290 
	C751.196960,830.959900 742.282166,830.959900 733.206909,830.959900 
	C733.125732,829.349304 733.034485,828.378418 733.034119,827.407593 
	C733.026794,809.449036 733.021606,791.490540 733.033447,773.531982 
	C733.055542,740.119629 733.088867,706.707214 733.117432,673.294861 
z"/>
<path fill="#F9F9F9" opacity="1.000000" stroke="none" 
	d="
M541.800720,673.125610 
	C542.292358,673.153687 542.783997,673.181824 543.796265,673.534546 
	C544.898926,676.241821 545.481018,678.624573 546.063110,681.007263 
	C546.025391,721.868103 545.983643,762.728943 545.953186,803.589783 
	C545.946655,812.398804 545.980774,821.207764 545.485535,830.487122 
	C539.204712,830.976074 533.431091,830.883240 527.665283,831.052429 
	C523.802002,831.165833 519.949707,831.651001 515.831543,831.985229 
	C515.396301,832.005615 515.222107,832.010498 514.954102,831.734863 
	C514.434998,831.658569 514.009644,831.862793 513.491455,832.055542 
	C513.398621,832.044128 513.216980,831.999268 513.216980,831.999268 
	C513.159790,813.727722 513.078125,795.456299 513.050537,777.184692 
	C512.998352,742.610718 512.976379,708.036804 512.950928,673.462830 
	C512.950623,672.995483 513.068665,672.527954 513.155090,671.884094 
	C518.826355,671.884094 524.431641,671.884094 530.231628,672.315063 
	C525.957153,672.745972 521.487976,672.745972 517.018738,672.745972 
	C517.032715,673.260986 517.046753,673.776001 517.060730,674.291016 
	C522.691956,673.944763 528.323181,673.598511 533.954407,673.252258 
	C534.163757,673.255554 534.373108,673.258850 535.041199,673.308716 
	C535.499939,673.355347 535.800720,673.125549 535.800720,673.125549 
	C536.033264,673.171448 536.265747,673.217346 536.999023,673.309326 
	C537.499939,673.355347 537.800720,673.125549 537.800720,673.125549 
	C538.651855,673.177795 539.502991,673.230042 540.927002,673.318848 
	C541.499878,673.355408 541.800720,673.125610 541.800720,673.125610 
z"/>
<path fill="#FAFAFA" opacity="1.000000" stroke="none" 
	d="
M434.140076,481.912659 
	C418.615631,498.314178 403.075684,514.346008 387.472443,530.315918 
	C379.036194,538.950439 371.369751,539.687622 360.874969,535.434692 
	C356.390656,533.617493 350.519897,525.163757 349.749268,518.721008 
	C348.419159,507.600891 355.594086,501.958191 361.878876,495.520020 
	C374.174561,482.924377 386.364563,470.195923 399.215942,458.183258 
	C407.191193,450.728516 414.843445,448.224579 424.610504,452.886566 
	C431.370270,456.113159 435.162872,461.159271 435.989532,468.860962 
	C436.479065,473.421539 436.530548,477.558960 434.140076,481.912659 
z"/>
<path fill="#FCFCFC" opacity="1.000000" stroke="none" 
	d="
M437.567444,561.527710 
	C432.058472,566.532715 427.260651,571.966125 421.440887,575.880127 
	C409.516724,583.899475 391.942200,571.175110 392.443939,556.750305 
	C392.791046,546.771362 398.650726,541.275452 404.769653,535.317871 
	C408.397095,531.786072 412.110291,528.342224 415.732452,524.804993 
	C421.880951,518.800781 428.014587,512.780762 434.102112,506.714844 
	C437.575439,503.253815 440.367188,498.644257 444.473206,496.372406 
	C455.426239,490.312012 465.620422,491.718933 474.314026,501.652191 
	C479.709534,507.817078 478.090210,521.768616 471.584137,528.200806 
	C464.053040,535.646301 456.446350,543.015320 448.876282,550.421387 
	C445.185150,554.032532 441.502533,557.652466 437.567444,561.527710 
z"/>
<path fill="#FDFDFD" opacity="1.000000" stroke="none" 
	d="
M459.363831,614.068726 
	C453.616150,615.743042 448.569397,614.028870 445.113129,610.198669 
	C441.167694,605.826416 437.994293,600.594421 435.350555,595.303772 
	C434.487091,593.575806 435.794067,590.161316 437.058838,588.101807 
	C439.422424,584.252869 442.369507,580.736816 445.293518,577.267395 
	C446.977112,575.269775 449.165588,573.707520 450.998901,571.824646 
	C460.014008,562.566101 468.757843,553.028259 478.067200,544.077576 
	C482.930176,539.401978 487.884491,534.223511 495.409637,533.751587 
	C504.217926,533.199097 510.317169,538.476257 514.558350,544.819336 
	C519.016602,551.487122 517.988525,559.567688 513.167786,565.905090 
	C507.848724,572.897644 501.625824,579.262207 495.364563,585.464111 
	C486.434418,594.309631 477.258240,602.924927 467.834625,611.238953 
	C465.891266,612.953491 462.399628,612.913086 459.363831,614.068726 
z"/>
<path fill="#FAFAFA" opacity="1.000000" stroke="none" 
	d="
M352.403961,422.083496 
	C358.750458,419.032684 364.963928,417.621368 371.394501,420.028717 
	C377.885345,422.458618 382.131500,427.389618 384.144287,433.863098 
	C386.473999,441.355865 385.182373,448.115753 379.360809,454.026184 
	C368.691895,464.858002 358.567291,476.230286 347.795593,486.955261 
	C337.002625,497.701416 317.992767,495.367523 312.376984,478.958923 
	C309.444916,470.391785 311.181305,462.301697 317.574890,455.708740 
	C326.495819,446.509644 335.620789,437.506897 344.739929,428.502655 
	C347.013245,426.257965 349.599091,424.329773 352.403961,422.083496 
z"/>
<path fill="#ABABAB" opacity="1.000000" stroke="none" 
	d="
M732.850586,673.129517 
	C733.088867,706.707214 733.055542,740.119629 733.033447,773.531982 
	C733.021606,791.490540 733.026794,809.449036 733.034119,827.407593 
	C733.034485,828.378418 733.125732,829.349304 733.206909,830.959900 
	C742.282166,830.959900 751.196960,830.959900 760.343750,831.333313 
	C751.017395,831.821594 741.459045,831.936462 731.900635,832.051270 
	C731.900635,832.051270 731.977356,832.023254 731.982666,831.587158 
	C731.980042,778.455994 731.972168,725.761047 731.964294,673.066040 
	C732.170776,673.032104 732.377319,672.998169 732.850586,673.129517 
z"/>
<path fill="#FDFDFD" opacity="1.000000" stroke="none" 
	d="
M731.507202,673.114807 
	C731.972168,725.761047 731.980042,778.455994 731.969849,831.625916 
	C731.550232,831.011841 730.798767,829.923279 730.797180,828.833740 
	C730.721863,777.421997 730.710632,726.010193 730.708618,674.598389 
	C730.708618,674.120117 730.931396,673.641846 731.507202,673.114807 
z"/>
<path fill="#FDFDFD" opacity="1.000000" stroke="none" 
	d="
M832.427979,735.728088 
	C832.050537,736.458008 831.216492,737.883911 830.374207,737.888794 
	C809.264832,738.012024 788.154480,737.985596 766.119629,737.985596 
	C767.537781,737.152527 768.069275,736.840271 768.796265,736.285400 
	C789.983704,735.949158 810.975586,735.855591 832.427979,735.728088 
z"/>
<path fill="#666666" opacity="1.000000" stroke="none" 
	d="
M793.408142,295.874756 
	C794.168152,295.406769 795.392883,294.392273 796.620972,294.388214 
	C811.249939,294.339752 825.879456,294.441620 840.750610,294.854614 
	C836.391846,295.383118 831.786133,295.477234 827.192444,295.764069 
	C823.128357,296.017853 819.078308,296.770691 815.021057,296.778137 
	C811.124084,296.785278 807.232361,295.998047 803.326111,295.785583 
	C800.185059,295.614716 797.025635,295.781006 793.408142,295.874756 
z"/>
<path fill="#9E9E9E" opacity="1.000000" stroke="none" 
	d="
M834.006226,768.014099 
	C834.338135,770.370422 834.946045,772.725403 834.957703,775.083313 
	C835.040649,791.863342 835.001648,808.644043 835.001526,825.424500 
	C835.001526,827.059021 835.001526,828.693481 835.001526,830.970764 
	C844.256226,830.970764 853.164246,831.020264 862.069092,830.873962 
	C862.759583,830.862671 863.427368,829.477051 864.302673,828.320435 
	C864.499695,827.910767 864.542419,827.931641 864.717346,828.335571 
	C865.615845,832.147705 863.386047,832.023987 861.090149,832.015869 
	C852.001038,831.983765 842.911804,832.011780 833.822571,832.017456 
	C833.557861,831.501892 833.293091,830.986328 833.335510,829.820312 
	C833.763916,808.784546 833.885132,788.399292 834.006226,768.014099 
z"/>
<path fill="#8D8D8D" opacity="1.000000" stroke="none" 
	d="
M866.457153,673.814819 
	C855.976501,673.998474 845.710327,673.998474 834.991272,673.998474 
	C834.991272,693.843567 834.991272,713.229187 834.991272,732.614807 
	C834.666138,732.614929 834.341003,732.615051 834.015869,732.615112 
	C834.015869,726.382690 834.015869,720.150208 833.960327,712.993774 
	C833.841858,699.379517 833.778931,686.689209 833.835083,673.713562 
	C833.929993,673.223633 833.905701,673.018921 833.881470,672.814270 
	C833.881470,672.814270 833.959045,672.902161 834.375732,672.965271 
	C841.945007,673.042725 849.098877,673.142273 856.249451,673.029541 
	C859.123413,672.984253 861.990051,672.472961 864.859985,672.173767 
	C865.463867,672.659607 866.067749,673.145386 866.457153,673.814819 
z"/>
<path fill="#FDFDFD" opacity="1.000000" stroke="none" 
	d="
M173.009857,832.463196 
	C172.966614,832.073608 173.170166,832.057617 174.149307,832.004700 
	C201.459015,831.984436 227.993134,832.001160 254.527252,832.017822 
	C254.527252,832.017822 254.711960,832.001404 254.803177,831.984741 
	C254.100769,832.326294 253.306992,832.997681 252.513580,832.997253 
	C226.094589,832.983521 199.675644,832.905457 173.009857,832.463196 
z"/>
<path fill="#8D8D8D" opacity="1.000000" stroke="none" 
	d="
M651.594360,806.206909 
	C651.868530,806.608337 651.782776,807.581787 651.493530,807.646606 
	C643.454895,809.447144 635.502136,809.755249 627.883240,805.523071 
	C635.644165,805.542725 643.391907,805.949097 651.594360,806.206909 
z"/>
<path fill="#FDFDFD" opacity="1.000000" stroke="none" 
	d="
M833.923462,767.808960 
	C833.885132,788.399292 833.763916,808.784546 833.429810,829.507385 
	C833.148499,809.207886 833.080078,788.570740 833.103516,767.473877 
	C833.471802,767.143616 833.686890,767.340149 833.923462,767.808960 
z"/>
<path fill="#9E9E9E" opacity="1.000000" stroke="none" 
	d="
M427.053345,674.896484 
	C426.076019,674.655640 425.340057,674.039612 424.606140,674.042053 
	C411.757721,674.084961 398.909576,674.203613 385.609802,674.202271 
	C385.660614,673.259460 386.163025,672.420105 387.087524,672.156250 
	C400.537628,672.813416 413.565582,672.895142 426.593567,672.976807 
	C426.827606,673.587585 427.061615,674.198303 427.053345,674.896484 
z"/>
<path fill="#8D8D8D" opacity="1.000000" stroke="none" 
	d="
M865.002441,824.997559 
	C865.093201,817.362549 865.183960,809.727600 865.521118,801.554932 
	C865.936768,801.004211 866.106079,800.991272 866.275330,800.978271 
	C866.411865,808.763916 866.548340,816.549622 866.149536,824.645386 
	C865.410339,824.969482 865.206360,824.983521 865.002441,824.997559 
z"/>
<path fill="#B7B7B7" opacity="1.000000" stroke="none" 
	d="
M248.793732,673.041321 
	C244.177689,673.485596 239.313843,673.925781 234.448410,673.944214 
	C228.061981,673.968323 221.674286,673.660034 215.120422,673.082947 
	C216.409836,672.455444 217.865952,672.239685 220.005768,672.376282 
	C224.450439,672.822021 228.215561,673.070984 231.971329,672.970398 
	C236.962158,672.836914 241.945709,672.430847 246.932373,672.141907 
	C247.469986,672.377808 248.007599,672.613708 248.793732,673.041321 
z"/>
<path fill="#FDFDFD" opacity="1.000000" stroke="none" 
	d="
M426.281982,672.619690 
	C413.565582,672.895142 400.537628,672.813416 387.255249,672.390808 
	C399.990692,672.120789 412.980560,672.191650 426.281982,672.619690 
z"/>
<path fill="#FDFDFD" opacity="1.000000" stroke="none" 
	d="
M866.313477,800.535645 
	C866.106079,800.991272 865.936768,801.004211 865.529297,801.105103 
	C864.898560,798.612854 864.505920,796.032837 864.255859,792.984741 
	C864.398315,792.516663 864.247925,792.470825 864.247925,792.470825 
	C864.282349,790.192993 864.316772,787.915222 864.860107,785.367126 
	C865.368958,785.096863 865.789307,785.315125 865.789307,785.315125 
	C865.789307,785.315125 866.262939,785.308777 866.262939,785.308777 
	C866.292480,790.236877 866.322021,795.164917 866.313477,800.535645 
z"/>
<path fill="#FDFDFD" opacity="1.000000" stroke="none" 
	d="
M833.716064,673.998840 
	C833.778931,686.689209 833.841858,699.379517 833.849548,712.536499 
	C833.794312,713.003113 833.499390,713.002563 833.351929,713.002075 
	C833.101318,700.305786 832.998169,687.610107 833.156799,674.455994 
	C833.418579,673.997620 833.716064,673.998840 833.716064,673.998840 
z"/>
<path fill="#FDFDFD" opacity="1.000000" stroke="none" 
	d="
M865.001221,824.998779 
	C865.206360,824.983521 865.410339,824.969482 865.919312,824.986816 
	C866.224365,827.488770 866.224365,829.959412 866.224365,832.801636 
	C855.527161,832.801636 844.891235,832.801636 834.038940,832.409546 
	C842.911804,832.011780 852.001038,831.983765 861.090149,832.015869 
	C863.386047,832.023987 865.615845,832.147705 864.710693,827.959595 
	C864.685242,826.454468 864.841370,825.729309 864.997498,825.004089 
	C864.997498,825.004089 865.000000,825.000000 865.001221,824.998779 
z"/>
<path fill="#B7B7B7" opacity="1.000000" stroke="none" 
	d="
M212.932861,672.682251 
	C212.449799,673.332092 211.905258,673.906433 211.358032,673.908997 
	C200.252747,673.961426 189.147141,673.948303 178.041595,673.948303 
	C178.037521,673.527344 178.033463,673.106445 178.029388,672.685486 
	C188.769531,672.685486 199.509674,672.685486 210.571320,672.439575 
	C211.551941,672.242615 212.211029,672.291565 212.932861,672.682251 
z"/>
<path fill="#FDFDFD" opacity="1.000000" stroke="none" 
	d="
M732.031250,832.488892 
	C741.459045,831.936462 751.017395,831.821594 760.815796,831.345703 
	C761.618713,830.986206 762.181519,830.987671 763.026123,830.985107 
	C762.641846,831.646057 761.982361,832.882629 761.309082,832.890259 
	C751.594421,832.999268 741.877869,832.943115 732.031250,832.488892 
z"/>
<path fill="#FDFDFD" opacity="1.000000" stroke="none" 
	d="
M515.047852,832.015442 
	C515.222107,832.010498 515.396301,832.005615 516.290771,831.956909 
	C526.656372,831.952881 536.301636,831.992798 545.946960,832.032715 
	C541.347168,832.355652 536.751099,832.860718 532.146606,832.956848 
	C525.890198,833.087463 519.627258,832.905396 513.292053,832.428345 
	C513.216980,831.999268 513.398621,832.044128 513.858887,832.032593 
	C514.562073,832.019287 514.804993,832.017395 515.047852,832.015442 
z"/>
<path fill="#ABABAB" opacity="1.000000" stroke="none" 
	d="
M744.675903,671.906128 
	C748.348389,672.305115 751.704285,672.683777 755.069885,672.929260 
	C756.828613,673.057556 758.604431,672.951904 760.356689,673.819702 
	C752.763184,673.819702 745.169739,673.819702 737.303955,673.502197 
	C739.475647,672.733337 741.919495,672.281982 744.675903,671.906128 
z"/>
<path fill="#9E9E9E" opacity="1.000000" stroke="none" 
	d="
M448.794922,831.402588 
	C459.231232,831.186646 469.662231,831.186646 480.093231,831.186646 
	C480.096405,831.455505 480.099548,831.724304 480.102722,831.993164 
	C470.046600,831.993164 459.990448,831.993164 449.465454,831.995483 
	C448.996582,831.997803 448.789642,831.618530 448.794922,831.402588 
z"/>
<path fill="#FDFDFD" opacity="1.000000" stroke="none" 
	d="
M864.415894,672.029785 
	C861.990051,672.472961 859.123413,672.984253 856.249451,673.029541 
	C849.098877,673.142273 841.945007,673.042725 834.318726,672.951782 
	C836.706116,672.496765 839.562683,671.841248 842.429260,671.794617 
	C849.607727,671.677917 856.790588,671.837158 864.415894,672.029785 
z"/>
<path fill="#9E9E9E" opacity="1.000000" stroke="none" 
	d="
M546.021179,831.756592 
	C536.301636,831.992798 526.656372,831.952881 516.551758,831.941406 
	C519.949707,831.651001 523.802002,831.165833 527.665283,831.052429 
	C533.431091,830.883240 539.204712,830.976074 545.437134,830.950317 
	C545.964722,831.122192 546.030029,831.301270 546.021179,831.756592 
z"/>
<path fill="#FCFCFC" opacity="1.000000" stroke="none" 
	d="
M246.471039,672.073914 
	C241.945709,672.430847 236.962158,672.836914 231.971329,672.970398 
	C228.215561,673.070984 224.450439,672.822021 220.390564,672.448120 
	C228.730988,672.113708 237.370346,672.059814 246.471039,672.073914 
z"/>
<path fill="#A5A5A5" opacity="1.000000" stroke="none" 
	d="
M533.962769,672.923462 
	C528.323181,673.598511 522.691956,673.944763 517.060730,674.291016 
	C517.046753,673.776001 517.032715,673.260986 517.018738,672.745972 
	C521.487976,672.745972 525.957153,672.745972 530.683533,672.419556 
	C531.950806,672.260376 532.960999,672.427551 533.962769,672.923462 
z"/>
<path fill="#A5A5A5" opacity="1.000000" stroke="none" 
	d="
M546.211182,680.660095 
	C545.481018,678.624573 544.898926,676.241821 544.167908,673.504883 
	C545.076233,671.007446 546.192383,670.989075 546.493042,673.398010 
	C546.775574,675.662170 546.428955,678.004822 546.211182,680.660095 
z"/>
<path fill="#8D8D8D" opacity="1.000000" stroke="none" 
	d="
M866.457031,688.708740 
	C866.009277,685.837830 865.827393,682.674866 865.963013,679.247925 
	C866.427979,682.128174 866.575500,685.272461 866.457031,688.708740 
z"/>
<path fill="#8D8D8D" opacity="1.000000" stroke="none" 
	d="
M866.491333,784.908447 
	C866.262939,785.308777 865.789307,785.315125 865.789307,785.315125 
	C865.789307,785.315125 865.368958,785.096863 865.134827,785.061890 
	C864.854004,782.339417 864.807373,779.651794 864.807373,776.631348 
	C865.326843,776.192444 865.799683,776.086365 866.272461,775.980286 
	C866.421570,778.822876 866.570679,781.665466 866.491333,784.908447 
z"/>
<path fill="#FDFDFD" opacity="1.000000" stroke="none" 
	d="
M865.113159,717.038452 
	C864.825378,714.715088 864.537598,712.391724 864.585815,709.810608 
	C865.391846,709.801758 865.861755,710.050720 866.331665,710.299683 
	C866.333313,712.283325 866.334900,714.267029 866.012451,716.597046 
	C865.496643,716.975159 865.304871,717.006836 865.113159,717.038452 
z"/>
<path fill="#8D8D8D" opacity="1.000000" stroke="none" 
	d="
M866.511169,751.704956 
	C866.042480,749.473389 865.803162,746.941528 865.908386,744.199463 
	C866.415466,746.461060 866.578003,748.932861 866.511169,751.704956 
z"/>
<path fill="#FDFDFD" opacity="1.000000" stroke="none" 
	d="
M864.454956,708.690796 
	C864.336731,706.650085 864.218445,704.609314 864.511108,702.077087 
	C865.378235,701.643005 865.834595,701.700378 866.290894,701.757751 
	C866.323242,703.490967 866.355591,705.224243 866.097839,707.390991 
	C865.356812,708.113220 864.905884,708.402039 864.454956,708.690796 
z"/>
<path fill="#8D8D8D" opacity="1.000000" stroke="none" 
	d="
M865.109558,770.931152 
	C865.321777,768.396973 865.533936,765.862732 866.032593,763.156982 
	C866.430786,765.359985 866.542542,767.734497 866.168335,770.527039 
	C865.491455,770.940430 865.300537,770.935791 865.109558,770.931152 
z"/>
<path fill="#FDFDFD" opacity="1.000000" stroke="none" 
	d="
M864.801758,771.201965 
	C865.300537,770.935791 865.491455,770.940430 865.939209,770.817139 
	C866.236755,772.160339 866.277405,773.631409 866.295227,775.541382 
	C865.799683,776.086365 865.326843,776.192444 864.501953,776.390625 
	C864.264465,774.812683 864.379211,773.142761 864.801758,771.201965 
z"/>
<path fill="#FDFDFD" opacity="1.000000" stroke="none" 
	d="
M864.415039,699.695435 
	C864.698486,697.857361 864.981873,696.019226 865.673096,694.090454 
	C866.164246,695.386597 866.247620,696.773499 865.976868,698.655518 
	C865.220154,699.332214 864.817627,699.513855 864.415039,699.695435 
z"/>
<path fill="#8D8D8D" opacity="1.000000" stroke="none" 
	d="
M866.496948,741.785217 
	C866.083313,740.789795 865.894592,739.573853 865.991272,738.171936 
	C866.425110,739.178894 866.573425,740.371765 866.496948,741.785217 
z"/>
<path fill="#8D8D8D" opacity="1.000000" stroke="none" 
	d="
M864.423462,699.927551 
	C864.817627,699.513855 865.220154,699.332214 865.946106,699.075073 
	C866.406616,699.796082 866.543823,700.592529 866.485962,701.573364 
	C865.834595,701.700378 865.378235,701.643005 864.578369,701.568115 
	C864.300476,701.086975 864.366150,700.623352 864.423462,699.927551 
z"/>
<path fill="#8D8D8D" opacity="1.000000" stroke="none" 
	d="
M865.166626,717.409912 
	C865.304871,717.006836 865.496643,716.975159 865.978027,716.975891 
	C866.427795,718.193665 866.587891,719.378967 866.519836,720.781250 
	C865.934448,719.925903 865.577271,718.853577 865.166626,717.409912 
z"/>
<path fill="#8D8D8D" opacity="1.000000" stroke="none" 
	d="
M864.490967,708.785889 
	C864.905884,708.402039 865.356812,708.113220 866.069763,707.755188 
	C866.468933,708.277344 866.606079,708.868774 866.537476,709.879944 
	C865.861755,710.050720 865.391846,709.801758 864.693481,709.413940 
	C864.465149,709.275024 864.527039,708.880920 864.490967,708.785889 
z"/>
<path fill="#FDFDFD" opacity="1.000000" stroke="none" 
	d="
M866.174805,730.666931 
	C865.811768,730.362183 865.576843,729.724304 865.637207,729.043701 
	C866.055969,729.445251 866.179382,729.889526 866.174805,730.666931 
z"/>
<path fill="#8D8D8D" opacity="1.000000" stroke="none" 
	d="
M866.515259,757.866577 
	C866.086670,757.376587 865.869995,756.744934 865.954712,756.051758 
	C866.413086,756.568420 866.570129,757.146667 866.515259,757.866577 
z"/>
<path fill="#A5A5A5" opacity="1.000000" stroke="none" 
	d="
M537.869202,672.845703 
	C537.800720,673.125549 537.499939,673.355347 537.348145,673.242310 
	C537.333435,672.651978 537.470520,672.174683 537.607666,671.697449 
	C537.717651,671.986938 537.827637,672.276428 537.869202,672.845703 
z"/>
<path fill="#A5A5A5" opacity="1.000000" stroke="none" 
	d="
M535.870544,672.851318 
	C535.800720,673.125549 535.499939,673.355347 535.348145,673.242310 
	C535.332886,672.661560 535.469360,672.193970 535.605835,671.726318 
	C535.717346,672.009949 535.828857,672.293518 535.870544,672.851318 
z"/>
<path fill="#A5A5A5" opacity="1.000000" stroke="none" 
	d="
M541.869934,672.849060 
	C541.800720,673.125610 541.499878,673.355408 541.348145,673.242310 
	C541.333069,672.657532 541.469849,672.185913 541.606567,671.714233 
	C541.717468,672.000305 541.828308,672.286438 541.869934,672.849060 
z"/>
<path fill="#FDFDFD" opacity="1.000000" stroke="none" 
	d="
M833.835144,673.713562 
	C833.716064,673.998840 833.418579,673.997620 833.269897,673.998657 
	C833.148499,673.574036 833.175842,673.148438 833.542358,672.768555 
	C833.905701,673.018921 833.929993,673.223633 833.835144,673.713562 
z"/>
<path fill="#8D8D8D" opacity="1.000000" stroke="none" 
	d="
M865.605835,676.147217 
	C865.774231,676.148315 865.942688,676.149414 866.069519,676.400269 
	C866.027954,676.650024 866.036255,676.566650 866.039246,676.524902 
	C866.042236,676.483154 866.040710,676.921265 865.852173,676.710632 
	C865.663696,676.500000 865.605835,676.147217 865.605835,676.147217 
z"/>
<path fill="#A5A5A5" opacity="1.000000" stroke="none" 
	d="
M294.002991,300.045288 
	C301.634949,300.033997 308.766510,300.033997 315.898102,300.033997 
	C315.896423,300.274506 315.894775,300.515045 315.893127,300.755554 
	C301.485260,300.755554 287.077362,300.755554 272.669495,300.755554 
	C272.665741,300.522552 272.661987,300.289581 272.658264,300.056580 
	C279.606354,300.056580 286.554474,300.056580 294.002991,300.045288 
z"/>
<path fill="#9E9E9E" opacity="1.000000" stroke="none" 
	d="
M208.085144,280.002869 
	C217.499237,279.998840 226.426620,279.998840 235.353989,279.998840 
	C235.353287,280.235779 235.352585,280.472687 235.351868,280.709625 
	C223.560272,280.709625 211.768677,280.709625 199.977081,280.709625 
	C199.960938,280.475372 199.944809,280.241150 199.928665,280.006897 
	C202.485245,280.006897 205.041840,280.006897 208.085144,280.002869 
z"/>
<path fill="#C1C1C1" opacity="1.000000" stroke="none" 
	d="
M222.986084,348.084045 
	C227.596451,348.067505 231.710068,348.067505 235.823700,348.067505 
	C235.821976,348.294006 235.820267,348.520508 235.818558,348.747009 
	C224.523346,348.747009 213.228149,348.747009 201.932938,348.747009 
	C201.929382,348.531525 201.925812,348.316071 201.922256,348.100586 
	C208.777939,348.100586 215.633636,348.100586 222.986084,348.084045 
z"/>
<path fill="#ABABAB" opacity="1.000000" stroke="none" 
	d="
M160.018295,349.029297 
	C155.561035,349.035492 151.600174,349.035492 147.639313,349.035492 
	C147.643646,348.771088 147.647980,348.506653 147.652313,348.242249 
	C158.389740,348.242249 169.127151,348.242249 179.864578,348.242249 
	C179.869217,348.502533 179.873856,348.762817 179.878510,349.023102 
	C173.423904,349.023102 166.969299,349.023102 160.018295,349.029297 
z"/>
<path fill="#C1C1C1" opacity="1.000000" stroke="none" 
	d="
M196.529739,348.095947 
	C197.259766,348.104797 197.707062,348.159363 198.154343,348.213898 
	C198.160065,348.386597 198.165787,348.559265 198.171494,348.731934 
	C197.477997,348.731934 196.784180,348.741211 196.091400,348.718658 
	C196.016510,348.716217 195.866867,348.471405 195.890305,348.438904 
	C195.978043,348.317322 196.123306,348.237244 196.529739,348.095947 
z"/>
<path fill="#C1C1C1" opacity="1.000000" stroke="none" 
	d="
M834.999756,348.994446 
	C824.557495,348.973846 814.615173,348.973846 804.672852,348.973846 
	C804.674561,348.721710 804.676270,348.469604 804.677979,348.217468 
	C828.731873,348.217468 852.785767,348.217468 876.839722,348.217468 
	C876.842285,348.483307 876.844910,348.749176 876.847534,349.015015 
	C863.064941,349.015015 849.282288,349.015015 834.999756,348.994446 
z"/>
<path fill="#ABABAB" opacity="1.000000" stroke="none" 
	d="
M730.003052,300.008911 
	C738.943054,299.991974 747.383728,299.991974 755.824463,299.991974 
	C755.824768,300.228821 755.825073,300.465698 755.825439,300.702545 
	C741.980713,300.702545 728.135986,300.702545 714.291321,300.702545 
	C714.282043,300.476959 714.272766,300.251404 714.263550,300.025818 
	C719.343628,300.025818 724.423706,300.025818 730.003052,300.008911 
z"/>
<path fill="#A5A5A5" opacity="1.000000" stroke="none" 
	d="
M828.752502,279.985413 
	C830.846436,279.986206 832.477417,279.986206 834.108459,279.986206 
	C834.102234,280.230499 834.096008,280.474762 834.089783,280.719055 
	C820.284241,280.719055 806.478638,280.719055 792.673096,280.719055 
	C792.670837,280.474243 792.668579,280.229401 792.666321,279.984589 
	C804.540710,279.984589 816.415161,279.984589 828.752502,279.985413 
z"/>
<path fill="#060606" opacity="1.000000" stroke="none" 
	d="
M259.556976,766.323608 
	C270.320129,769.960510 272.993042,778.430847 271.813385,787.758118 
	C270.562958,797.645142 260.620758,803.766296 252.609528,803.887573 
	C239.431503,804.086975 226.261185,804.753113 213.083832,805.057617 
	C205.955429,805.222351 205.914825,805.058411 205.899445,797.893616 
	C205.875626,786.800110 205.893158,775.706482 205.893158,764.207336 
	C214.397461,764.207336 222.060349,764.211914 229.723236,764.206055 
	C237.132492,764.200317 244.547241,764.018799 251.947861,764.265808 
	C254.374252,764.346863 256.763916,765.527771 259.556976,766.323608 
z"/>
<path fill="#080808" opacity="1.000000" stroke="none" 
	d="
M205.877563,726.958130 
	C205.877151,718.521423 205.877151,710.576843 205.877151,702.103943 
	C218.570557,702.103943 230.744278,702.018799 242.915543,702.153870 
	C246.761978,702.196472 250.775909,702.240051 254.407822,703.315002 
	C261.517975,705.419373 266.293488,712.299377 266.092224,718.944580 
	C265.885712,725.761658 260.476532,732.983093 253.526016,734.792908 
	C248.925934,735.990662 244.110733,736.789185 239.367767,736.924744 
	C228.587570,737.232910 217.792542,737.021851 206.539581,737.021851 
	C206.301056,733.571167 206.089508,730.510681 205.877563,726.958130 
z"/>
<path fill="#B7B7B7" opacity="1.000000" stroke="none" 
	d="
M254.180389,831.711426 
	C227.993134,832.001160 201.459015,831.984436 174.455017,831.985962 
	C175.194733,831.673584 176.403702,831.057251 177.614044,831.054565 
	C202.206268,831.000000 226.798630,831.011963 251.390961,831.033569 
	C252.205246,831.034302 253.019348,831.275696 254.180389,831.711426 
z"/>
<path fill="#0A0A0A" opacity="1.000000" stroke="none" 
	d="
M388.534058,769.740540 
	C387.106079,769.741272 386.108521,769.741272 384.436768,769.741272 
	C391.670837,749.255554 398.828796,728.985352 406.236237,708.008667 
	C413.567108,728.883057 420.673706,749.118774 427.915619,769.739807 
	C414.807922,769.739807 401.886200,769.739807 388.534058,769.740540 
z"/>
<path fill="#9E9E9E" opacity="1.000000" stroke="none" 
	d="
M328.856140,830.824707 
	C339.263641,830.787170 349.716431,830.787170 360.169189,830.787170 
	C360.168427,831.034485 360.167633,831.281860 360.166840,831.529175 
	C349.877777,831.529175 339.588684,831.529175 329.040771,831.156860 
	C328.781952,830.784485 328.901428,830.862305 328.856140,830.824707 
z"/>
<path fill="#8D8D8D" opacity="1.000000" stroke="none" 
	d="
M864.837036,825.258301 
	C864.841370,825.729309 864.685242,826.454468 864.535767,827.555664 
	C864.542419,827.931641 864.499695,827.910767 864.478821,827.920166 
	C864.530823,827.123901 864.603699,826.318237 864.837036,825.258301 
z"/>
<path fill="#FDFDFD" opacity="1.000000" stroke="none" 
	d="
M865.354797,676.164612 
	C865.605835,676.147217 865.663696,676.500000 865.635864,676.676270 
	C865.439941,676.628967 865.271851,676.405457 865.354797,676.164612 
z"/>
<path fill="#8D8D8D" opacity="1.000000" stroke="none" 
	d="
M864.247803,792.485107 
	C864.247925,792.470825 864.398315,792.516663 864.322632,792.522217 
	C864.246948,792.527832 864.247620,792.499390 864.247803,792.485107 
z"/>
<path fill="#9E9E9E" opacity="1.000000" stroke="none" 
	d="
M514.954102,831.734863 
	C514.804993,832.017395 514.562073,832.019287 513.951782,832.044067 
	C514.009644,831.862793 514.434998,831.658569 514.954102,831.734863 
z"/>
</svg>